<?xml version="1.0" standalone="no"?>
<!DOCTYPE svg PUBLIC "-//W3C//DTD SVG 1.1//EN" "http://www.w3.org/Graphics/SVG/1.1/DTD/svg11.dtd" >
<svg xmlns="http://www.w3.org/2000/svg">
<metadata>
This is a custom SVG webfont generated by Font Squirrel.
Copyright   :  1991 2002 Adobe Systems Incorporated All rights reserved
Designer    : Hermann Zapf
Foundry URL : httpwwwadobecomtype
</metadata>
<defs>
<font id="webfontMe7hUhsS" horiz-adv-x="985" >
<font-face units-per-em="2048" ascent="1487" descent="-561" />
<missing-glyph horiz-adv-x="512" />
<glyph unicode=" "  horiz-adv-x="512" />
<glyph unicode="&#x09;" horiz-adv-x="512" />
<glyph unicode="&#xa0;" horiz-adv-x="512" />
<glyph unicode="!" horiz-adv-x="606" d="M279 391l-62 981l131 70h43q6 -41 6 -80q0 -127 -31.5 -449.5t-31.5 -484.5l-45 -43zM197 90q0 43 31.5 76t74.5 33t75 -33t32 -76t-32 -73.5t-75 -30.5q-41 0 -73.5 30.5t-32.5 73.5z" />
<glyph unicode="&#x22;" d="M610 942l-30 326q-6 63 -7 94q0 27 18.5 52.5t55.5 25.5t55.5 -25.5t18.5 -52.5q0 -31 -6 -94l-31 -326q-4 -55 -37 -55t-37 55zM301 944l-31 326q-6 66 -6 94q0 27 18.5 52.5t55.5 25.5t55.5 -25.5t18.5 -52.5q0 -29 -6 -94l-31 -326q-4 -55 -37 -55t-37 55z" />
<glyph unicode="#" horiz-adv-x="1024" d="M389 854l-45 -315h291l45 315h-291zM168 0l65 453h-229v86h242l45 315h-230v86h242l66 453h98l-66 -453h291l66 453h98l-65 -453h229v-86h-242l-45 -315h230v-86h-242l-66 -453h-98l66 453h-291l-66 -453h-98z" />
<glyph unicode="$" horiz-adv-x="1024" d="M440 836v510q-115 -14 -177 -87t-62 -169.5t59 -153.5t180 -100zM522 639v-590q125 20 207 101t82 215q0 113 -60.5 166t-228.5 108zM440 -233v204q-16 -2 -53 -2q-158 0 -321 66l-7 8q6 68 13 330l6 6h49l6 -6q8 -123 21 -172q82 -156 286 -158v625l-34 12 q-162 57 -216 96q-123 86 -122 252q0 141 88 246.5t284 132.5v149l6 7h70l6 -7v-145h23q201 0 334 -74l6 -8q-31 -129 -31 -285l-6 -6h-53l-7 6l-4 121q-68 172 -262 185v-541l68 -23q70 -23 97.5 -33t83.5 -35.5t81 -48t56.5 -59.5t44 -85t12.5 -107q0 -150 -114 -276 t-329 -162v-213l-6 -7h-70z" />
<glyph unicode="%" horiz-adv-x="1820" d="M201 1024q0 160 75.5 267.5t235.5 107.5q152 0 216.5 -86t64.5 -254q0 -199 -88.5 -290t-219.5 -91q-284 0 -284 346zM324 1073q0 -334 188 -334q158 0 158 277q0 166 -45 243.5t-146 77.5q-155 0 -155 -264zM1028 315q0 160 76 267.5t235 107.5q152 0 216.5 -86 t64.5 -254q0 -199 -88 -290t-219 -91q-285 0 -285 346zM1151 365q0 -334 188 -334q158 0 158 276q0 166 -45 244t-145 78q-156 0 -156 -264zM487 -90l756 1548l8 6h76l6 -6l-755 -1548l-9 -6h-75z" />
<glyph unicode="&#x26;" horiz-adv-x="1630" d="M1464 692l-241 8q10 -45 10 -88q0 -199 -184 -381q57 -43 86.5 -62t89 -45t108.5 -26q61 0 176 64l9 -6l8 -43l-6 -11q-70 -41 -154 -118q-23 -8 -70 -9q-150 0 -344 168q-57 -47 -97 -74.5t-127 -60.5t-177 -33q-106 0 -188 38t-126 99.5t-65.5 125t-21.5 124.5 q0 246 296 433q-55 139 -55 237q0 119 38 182.5t112 118.5q104 78 178 78q72 0 112.5 -53t40.5 -125q0 -201 -301 -412q78 -158 201 -305t234 -248q41 47 60 74t40.5 88.5t21.5 138.5q0 57 -34 127q-96 16 -187 17l-6 8q37 35 64 78q96 -8 217 -8q176 0 311 10l10 -15 l-24 -86zM283 414q0 -150 102 -242t238 -92q145 0 284 106q-256 240 -436 557q-188 -132 -188 -329zM489 1108q0 -117 58 -231q109 74 159 154.5t50 152.5q0 57 -30 96t-81 39q-61 0 -108.5 -56.5t-47.5 -154.5z" />
<glyph unicode="'" horiz-adv-x="532" d="M229 944l-30 326q-6 66 -6 94q0 27 18 52.5t55 25.5t55.5 -25.5t18.5 -52.5q0 -29 -6 -94l-31 -326q-4 -55 -37 -55t-37 55z" />
<glyph unicode="(" horiz-adv-x="681" d="M653 1524l35 -37v-6q-51 -49 -82 -83t-89 -121t-92 -176t-62.5 -232.5t-28.5 -307.5q0 -184 32.5 -338.5t92 -267.5t107.5 -178.5t114 -136.5v-7l-39 -34h-6q-59 57 -99 101t-113 143.5t-119 196.5t-82 240.5t-36 294.5q0 565 461 949h6z" />
<glyph unicode=")" horiz-adv-x="681" d="M29 -401l-35 36v7q51 49 81.5 82.5t89 120.5t92.5 176.5t62.5 232.5t28.5 307q0 184 -32.5 339t-92 267.5t-107.5 178t-114 137.5v6l39 35h6q59 -57 99 -101.5t113 -143.5t119 -196.5t82 -241t36 -294.5q0 -565 -461 -948h-6z" />
<glyph unicode="*" d="M223 1360h19q135 -154 223 -227q51 279 53 303l17 6l59 -17q18 -6 55 -14l6 -16q-106 -188 -143 -281q152 18 293 49l18 -8q-2 -20 2 -61q2 -23 6 -64l-12 -10q-154 35 -309 45q57 -135 139 -260l-8 -17q-10 -6 -28.5 -15t-24.5 -13q-25 -14 -53 -33l-17 4 q-12 129 -59 311q-152 -127 -236 -208l-18 6q-4 8 -21 53q-12 25 -28 53l8 21q250 104 280 120q-174 96 -284 146l-6 18q33 43 39 56q4 8 15 27.5t15 25.5z" />
<glyph unicode="+" horiz-adv-x="1228" d="M565 0v469h-469v98h469v469h99v-469h469v-98h-469v-469h-99z" />
<glyph unicode="," horiz-adv-x="512" d="M2 -305l-16 16q88 137 136 274.5t54 217.5q86 12 182 45l15 -17q-53 -121 -140.5 -269t-150.5 -226z" />
<glyph unicode="-" horiz-adv-x="872" d="M723 555l10 -14q-31 -33 -43 -84q-264 6 -266 6q-39 0 -84 -1t-99.5 -3t-84.5 -2l-17 12l43 86q31 0 86.5 -2t100.5 -3t86 -1t85 1t98 3t85 2z" />
<glyph unicode="." horiz-adv-x="512" d="M150 90q0 43 31.5 76t74.5 33t74.5 -33t31.5 -76t-31.5 -73.5t-74.5 -30.5q-41 0 -73.5 30.5t-32.5 73.5z" />
<glyph unicode="/" horiz-adv-x="645" d="M66 -25l417 1461l6 6h84l7 -6l-416 -1461l-6 -6h-86z" />
<glyph unicode="0" horiz-adv-x="1024" d="M512 31q63 0 112.5 29.5t78 88t48 118t26.5 147.5t9 146t2 145q0 59 -1 98t-6 111.5t-15 122.5t-30.5 111.5t-49.5 99.5t-74 63.5t-102 25.5q-90 0 -148.5 -50t-86 -149.5t-38 -206t-10.5 -259.5q0 -641 285 -641zM494 -31q-84 0 -151 31t-107.5 74t-71.5 113.5 t-44.5 128t-21.5 140.5t-9 124t-1 106q0 213 43 362.5t113.5 221t139.5 100.5t142 29q410 0 410 -676q0 -84 -6 -164t-33 -193.5t-71 -195.5t-129.5 -141.5t-202.5 -59.5z" />
<glyph unicode="1" horiz-adv-x="1024" d="M483 240v981q0 37 -10 36q-16 0 -102 -45l-240 -122l-10 6q-10 76 -10 80q0 10 16 18t88 33q211 74 406 190l22 -18q-12 -72 -12 -258v-901q0 -70 4 -107t9 -45t15 -14q16 -10 136 -17l90 -4l6 -6v-47l-6 -6q-295 6 -328 6t-328 -6l-6 6v47l6 6l90 4q119 6 136 17 q10 6 15 14t9 45t4 107z" />
<glyph unicode="2" horiz-adv-x="1024" d="M61 0v55l84 86q371 381 475.5 527.5t104.5 302.5q0 139 -75 217t-199 78q-55 0 -110.5 -18.5t-83.5 -36t-34 -25.5q-6 -12 -69 -207l-7 -6h-41l-6 6q29 150 37 289l6 8q158 123 338 123q184 0 291 -105.5t107 -273.5q0 -113 -74 -244t-275 -330l-315 -313h389 q227 0 346 14l6 -6q-6 -31 -6 -71.5t6 -69.5l-6 -6q-47 0 -135 2t-158.5 3t-134.5 1q-12 0 -454 -6z" />
<glyph unicode="3" horiz-adv-x="1024" d="M55 328l41 12l6 -6q59 -164 140.5 -227.5t199.5 -63.5q129 0 227.5 87t98.5 265q0 152 -79 220.5t-195 68.5q-96 0 -175 -41l-12 8q14 49 25 105q57 -10 82 -11q135 0 213 81t78 202q0 94 -62.5 166t-200.5 72q-72 0 -127 -23.5t-73 -42.5q-8 -8 -68 -176l-6 -6h-47l-6 6 q39 106 65 258q45 43 129 80t180 37q143 0 249 -84t106 -232q0 -176 -232 -329q315 -37 316 -297q0 -203 -166 -345.5t-385 -142.5q-131 0 -258 56q-25 158 -70 292z" />
<glyph unicode="4" horiz-adv-x="1024" d="M592 240v131h-246q-143 0 -299 -4l-18 43q274 508 497 841l70 111l125 55l18 -18l-4 -924q135 0 193 6l6 -6q-4 -41 -4 -53q0 -14 4 -55l-6 -7q-88 10 -197 11v-131q0 -145 33 -166q23 -14 90 -17l84 -4l6 -6v-47l-6 -6q-252 6 -272 6q-57 0 -316 -6l-6 6v47l6 6l78 4 q119 6 135 17q10 6 15.5 14t9.5 45t4 107zM596 475l4 776l-4 4q-295 -471 -459 -780h459z" />
<glyph unicode="5" horiz-adv-x="1024" d="M47 291l33 16l6 -4q111 -248 334 -248q150 0 247 102.5t97 260.5q0 141 -78 253.5t-231 112.5q-166 0 -279 -135l-29 6q16 285 17 402q0 223 -12 317l16 15q88 -8 223 -9q293 0 449 9l8 -9q-6 -29 -6 -69.5t6 -65.5l-12 -12q-135 16 -285 16q-215 0 -309 -10 q-12 -113 -21 -442q127 111 279 110q182 0 292.5 -114.5t110.5 -278.5q0 -240 -173 -392.5t-396 -152.5q-113 0 -187 49q-55 160 -106 265z" />
<glyph unicode="6" horiz-adv-x="1024" d="M799 1409l53 -29l-6 -12q-41 -8 -94.5 -26.5t-142.5 -71.5t-159.5 -125t-129 -198t-68.5 -279q111 88 162 123q68 49 176 49q137 0 242.5 -98.5t105.5 -276.5q0 -213 -130 -354.5t-316 -141.5q-174 0 -290 137.5t-116 411.5q0 193 68.5 357.5t178 271t229.5 173t237 89.5 zM799 397q0 141 -75 236.5t-202 95.5q-100 0 -179 -53t-97 -109q-12 -41 -13 -131q0 -45 4.5 -88t20.5 -105.5t46 -107.5t86 -77.5t132 -32.5q135 0 206 108t71 264z" />
<glyph unicode="7" horiz-adv-x="1024" d="M1010 1382v-47q-150 -258 -338.5 -686t-261.5 -645l-11 -10q-43 6 -77 6q-31 0 -86 -6l-11 10q489 942 658 1229l-11 12q-53 6 -133 6h-434q-45 0 -61.5 -28.5t-28.5 -112.5l-16 -121l-6 -6h-41l-7 6q6 109 6.5 207t-10.5 190l11 13q104 -10 235 -15q156 -4 234 -4 q252 0 383 9z" />
<glyph unicode="8" horiz-adv-x="1024" d="M82 332q0 227 303 379q-129 59 -191.5 130.5t-62.5 180.5q0 160 117 268.5t280 108.5q168 0 267.5 -84t99.5 -209t-87 -207t-200 -129q84 -35 133.5 -61.5t101.5 -69.5t75.5 -101.5t23.5 -138.5q0 -164 -127 -297t-338 -133q-178 0 -286.5 110t-108.5 253zM221 350 q0 -137 81 -225t220 -88q113 0 205 75.5t92 211.5q0 31 -5 57.5t-10 48t-21.5 43t-25.5 34.5t-37 33l-41 28q-13 9 -51 28.5l-54 27.5l-63 29l-67 31q-115 -57 -169 -154.5t-54 -179.5zM254 1085q0 -102 78 -166.5t217 -123.5q213 88 213 282q0 129 -68.5 194.5t-179.5 65.5 q-109 0 -184.5 -67.5t-75.5 -184.5z" />
<glyph unicode="9" horiz-adv-x="1024" d="M225 -41l-53 29l6 12q41 8 94.5 26.5t142.5 72t159.5 125t129 197.5t68.5 279q-111 -88 -162 -122q-68 -49 -176 -50q-137 0 -242.5 98.5t-105.5 276.5q0 213 130 354.5t316 141.5q174 0 290 -137.5t116 -411.5q0 -193 -68.5 -357.5t-178 -271t-229.5 -173t-237 -89.5z M225 971q0 -141 75 -236.5t202 -95.5q100 0 179 53t97 109q12 41 13 131q0 45 -4.5 88t-20.5 105.5t-46 107.5t-86 77.5t-132 32.5q-135 0 -206 -108t-71 -264z" />
<glyph unicode=":" horiz-adv-x="512" d="M150 797q0 43 31.5 75.5t74.5 32.5t74.5 -32.5t31.5 -75.5t-31.5 -74t-74.5 -31q-41 0 -73.5 31t-32.5 74zM150 90q0 43 31.5 76t74.5 33t74.5 -33t31.5 -76t-31.5 -73.5t-74.5 -30.5q-41 0 -73.5 30.5t-32.5 73.5z" />
<glyph unicode=";" horiz-adv-x="512" d="M2 -305l-16 16q88 137 136 274.5t54 217.5q86 12 182 45l15 -17q-53 -121 -140.5 -269t-150.5 -226zM150 797q0 43 31.5 75.5t74.5 32.5t74.5 -32.5t31.5 -75.5t-31.5 -74t-74.5 -31q-41 0 -73.5 31t-32.5 74z" />
<glyph unicode="&#x3c;" horiz-adv-x="1228" d="M1133 -16l-1037 479v110l1037 480v-111l-914 -424l914 -424v-110z" />
<glyph unicode="=" horiz-adv-x="1228" d="M96 670v98h1037v-98h-1037zM96 268v99h1037v-99h-1037z" />
<glyph unicode="&#x3e;" horiz-adv-x="1228" d="M96 1053l1037 -480v-110l-1037 -479v110l914 424l-914 424v111z" />
<glyph unicode="?" horiz-adv-x="948" d="M446 428l-24 -27h-8q-68 55 -68 125q0 74 98 189l82 94q139 160 140 266q0 102 -67 173t-193 71q-70 0 -140 -37q-55 -100 -84 -162l-10 -6l-37 8l-6 8q35 92 76 232q47 35 122.5 57.5t137.5 22.5q141 0 247.5 -91t106.5 -243q0 -68 -35.5 -134.5t-72.5 -107.5t-127 -129 q-117 -115 -143.5 -151.5t-26.5 -75.5q0 -37 32 -70v-12zM307 90q0 43 32 76t75 33t74.5 -33t31.5 -76t-31.5 -73.5t-74.5 -30.5q-41 0 -74 30.5t-33 73.5z" />
<glyph unicode="@" horiz-adv-x="1638" d="M1063 856q0 139 -107 139q-100 0 -198.5 -126t-98.5 -332q0 -156 103 -156q111 0 206 147.5t95 327.5zM1294 133l27 -43q-233 -119 -440 -119q-199 0 -359 69t-252 176.5t-139 226t-47 231.5q0 342 225.5 555t567.5 213q303 0 490 -182.5t187 -444.5 q0 -213 -111.5 -360.5t-285.5 -147.5q-92 0 -134 51.5t-42 98.5h-4q-117 -150 -244 -150q-98 0 -159.5 68.5t-61.5 195.5q0 197 127 353.5t297 156.5q117 0 151 -110h5l18 84h139l-131 -520q-14 -57 -14 -89q0 -78 76 -77q141 0 227 124.5t86 319.5q0 233 -173 400t-429 167 q-307 0 -481 -188t-174 -541q0 -244 177 -431t466 -187q86 0 165.5 15t125.5 32.5t124 52.5z" />
<glyph unicode="A" horiz-adv-x="1441" d="M297 451l295 706q94 231 108 270h56l438 -1091q72 -178 108.5 -229.5t92.5 -51.5h63l6 -6v-49l-6 -6q-221 6 -231 6q-14 0 -291 -6l-6 6v49l6 6h51q117 0 117 47q0 27 -78 224l-55 143q-197 4 -295 4q-90 0 -283 -4l-61 -158q-66 -168 -66 -198q0 -57 123 -58h55l7 -6 v-49l-7 -6q-240 6 -249 6q-14 0 -211 -6l-7 6v47l7 8q43 0 62.5 1t47 17.5t40.5 32t42 70.5t51 108zM946 545l-258 657l-266 -657q176 -4 254 -4q90 0 270 4z" />
<glyph unicode="B" horiz-adv-x="1175" d="M213 467v717q0 119 -14 139q-16 27 -109 31l-74 4l-6 6v47l6 6q258 -6 275 -6q49 0 157.5 3t163.5 3q176 0 293 -64.5t117 -215.5q0 -135 -103.5 -226.5t-244.5 -107.5v-4q80 -4 149.5 -21.5t133 -55.5t100.5 -106.5t37 -160.5q0 -154 -110 -269.5t-277 -165.5 q-92 -27 -201 -26q-80 0 -144.5 3t-72.5 3l-160 -6l-6 6v41l6 6l57 31q12 4 13 18q14 160 14 371zM367 750v-439q0 -129 6 -227q63 -23 147 -23q197 0 298.5 101.5t101.5 269.5q0 96 -33 161.5t-94.5 100.5t-133 48.5t-165.5 13.5q-10 0 -127 -6zM367 1122v-299h135 q160 0 235 47q125 78 125 224q0 98 -52 158.5t-116.5 79t-146.5 18.5q-86 0 -172 -13q-8 -82 -8 -215z" />
<glyph unicode="C" horiz-adv-x="1402" d="M1370 174l-49 -100q-55 -31 -94 -48.5t-128 -37t-194 -19.5q-354 0 -577.5 203t-223.5 514q0 373 254 580q100 82 235.5 129t264.5 47q152 0 314.5 -38t177.5 -40l6 -6q-41 -117 -53 -291l-7 -6h-43l-6 6q0 72 -8 180q-145 121 -385 121q-111 0 -211 -37t-183 -110.5 t-132 -199.5t-49 -288q0 -117 41.5 -234.5t119.5 -218t208 -163t290 -62.5q104 0 194.5 25.5t127 48.5l92.5 61z" />
<glyph unicode="D" horiz-adv-x="1554" d="M393 1047v-742q0 -164 6 -223q72 -14 236 -14q287 0 461 180t174 485q0 158 -48 275.5t-117 181t-166 101.5t-173 48.5t-160 10.5q-100 0 -200 -15q-13 -87 -13 -288zM240 467v717q0 119 -15 139q-16 27 -108 31l-74 4l-6 6v47l6 6q258 -6 274 -6q84 0 217.5 3t170.5 3 q104 0 201.5 -16.5t198.5 -60.5t176 -114.5t122 -188t47 -271.5q0 -104 -28.5 -210.5t-93 -208t-158 -179.5t-231.5 -126t-304 -48q-53 0 -160.5 3t-159.5 3l-159 -6l-6 6v41l6 6l57 31q12 4 12 18q15 160 15 371z" />
<glyph unicode="E" horiz-adv-x="1175" d="M240 467v717q0 119 -15 139q-16 27 -108 31l-74 4l-6 6v47l6 6q301 -6 303 -6q106 0 227 1t268.5 3t227.5 2l6 -6q-29 -176 -28 -309l-7 -6h-49l-6 6q0 57 -14 198q-152 43 -336 43q-139 0 -236 -6q-6 -109 -6 -190v-381q70 -6 189 -6q227 0 254 16q16 10 21 35t15 125 l7 6h43l6 -6q-6 -166 -6 -221q0 -145 6 -219l-6 -7h-43l-7 7q-10 111 -17 136t-34 36q-49 18 -221 18q-109 0 -207 -6v-350q0 -82 4 -262h281q178 0 323 36q33 113 50 230l6 6h45l6 -6q-20 -195 -21 -334l-6 -6q-461 6 -626 6q-207 0 -299 -6l-6 6v41l6 6l57 31q12 4 12 18 q15 160 15 371z" />
<glyph unicode="F" horiz-adv-x="1062" d="M240 227v957q0 119 -15 139q-16 27 -108 31l-74 4l-6 6v47l6 6q301 -6 303 -6l688 6l6 -6q-29 -156 -28 -309l-6 -6h-50l-6 6q0 57 -14 198q-152 43 -289 43q-96 0 -248 -16q-6 -92 -6 -180v-381q70 -6 174 -6q227 0 254 16q16 10 21.5 35t15.5 125l6 6h43l6 -6 q-6 -166 -6 -221q0 -145 6 -219l-6 -7h-43l-6 7q-10 111 -17 136t-34 36q-49 18 -221 18q-94 0 -193 -6v-453q0 -119 15 -139q16 -27 108 -31l74 -4l6 -6v-47l-6 -6q-258 6 -273 6q-16 0 -274 -6l-6 6v47l6 6l74 4q92 4 108 31q15 20 15 139z" />
<glyph unicode="G" horiz-adv-x="1593" d="M1026 512v47l6 6q215 -6 275 -6q61 0 184 6l6 -6v-47l-6 -6l-70 -39q-6 -123 -6 -186q0 -154 12 -203l-6 -6q-276 -102 -534 -103q-219 0 -397.5 83t-288 254t-109.5 405q0 221 117 391t297 255t389 85q256 0 520 -90l6 -6q-29 -123 -45 -295l-6 -7h-43l-6 7 q-16 190 -18 198q-168 119 -424 119q-276 0 -441.5 -171t-165.5 -458q0 -305 177.5 -499.5t455.5 -194.5q154 0 352 70q10 57 11 213v104q0 39 -22.5 53.5t-102.5 16.5l-111 4z" />
<glyph unicode="H" horiz-adv-x="1630" d="M240 227v957q0 119 -15 139q-16 27 -108 31l-74 4l-6 6v47l6 6q258 -6 274 -6q14 0 273 6l6 -6v-47l-6 -6l-74 -4q-92 -4 -108 -31q-14 -20 -15 -139v-398q418 -6 424 -6q2 0 420 6v398q0 119 -14 139q-16 27 -109 31l-74 4l-6 6v47l6 6q258 -6 273 -6q16 0 274 6l6 -6 v-47l-6 -6l-74 -4q-92 -4 -108 -31q-14 -20 -14 -139v-957q0 -119 14 -139q16 -27 108 -31l74 -4l6 -6v-47l-6 -6q-258 6 -274 6q-14 0 -273 -6l-6 6v47l6 6l74 4q92 4 109 31q14 20 14 139v473q-418 6 -420 7q-6 0 -424 -7v-473q0 -119 15 -139q16 -27 108 -31l74 -4l6 -6 v-47l-6 -6q-258 6 -273 6q-16 0 -274 -6l-6 6v47l6 6l74 4q92 4 108 31q15 20 15 139z" />
<glyph unicode="I" horiz-adv-x="645" d="M246 227v957q0 119 -15 139q-16 27 -108 31l-74 4l-6 6v47l6 6q258 -6 275 -6q14 0 272 6l6 -6v-47l-6 -6l-74 -4q-92 -4 -108 -31q-14 -20 -15 -139v-957q0 -119 15 -139q16 -27 108 -31l74 -4l6 -6v-47l-6 -6q-258 6 -272 6q-16 0 -275 -6l-6 6v47l6 6l74 4 q92 4 108 31q15 20 15 139z" />
<glyph unicode="J" horiz-adv-x="645" d="M246 53v1131q0 119 -15 139q-16 27 -108 31l-74 4l-6 6v47l6 6q258 -6 275 -6q14 0 272 6l6 -6v-47l-6 -6l-74 -4q-92 -4 -108 -31q-14 -20 -15 -139v-914q0 -250 -61 -407q-43 -109 -126 -182.5t-189 -73.5q-14 0 -43 4q6 61 6 74q0 31 -6 86l16 8q45 -55 106 -55 q74 0 109 66t35 263z" />
<glyph unicode="K" horiz-adv-x="1402" d="M240 227v957q0 119 -15 139q-16 27 -108 31l-74 4l-6 6v47l6 6q258 -6 274 -6q14 0 273 6l6 -6v-47l-6 -6l-74 -4q-92 -4 -108 -31q-14 -20 -15 -139v-441q307 256 649 633v35l7 6q92 -6 106 -6q12 0 184 6l7 -6v-47l-7 -6q-61 0 -95 -6t-49 -14.5t-56 -37.5 q-104 -74 -420 -362l-189 -172l721 -645q51 -45 75 -55.5t87 -10.5l6 -6v-49l-6 -6q-129 6 -141 6q-16 0 -35.5 -1t-43.5 -3t-36 -2q-23 25 -100 94l-664 594v-455q0 -119 15 -139q16 -27 108 -31l74 -4l6 -6v-47l-6 -6q-258 6 -273 6q-16 0 -274 -6l-6 6v47l6 6l74 4 q92 4 108 31q15 20 15 139z" />
<glyph unicode="L" horiz-adv-x="1214" d="M240 467v717q0 119 -15 139q-16 27 -108 31l-74 4l-6 6v47l6 6q258 -6 274 -6q14 0 273 6l6 -6v-47l-6 -6l-74 -4q-92 -4 -108 -31q-14 -20 -15 -139v-973q0 -31 8 -137h267q221 0 356 43q37 125 61 233l7 6h47l6 -6q-41 -223 -43 -350l-6 -6q-70 0 -199 2t-234.5 3 t-199.5 1q-98 0 -307 -6l-6 6v41l6 6l69 37q15 178 15 383z" />
<glyph unicode="M" horiz-adv-x="1857" d="M37 0v47l6 6l72 4q72 4 92 29q12 12 16 59q14 137 15 473v560q0 109 -18.5 140.5t-78.5 35.5l-98 4l-6 6v47l6 6q129 -6 205 -6l147 6l107 -254l430 -956l452 971q37 80 103 239q12 0 70.5 -3t89.5 -3q76 0 168 6l6 -6v-47l-6 -6l-74 -4q-92 -4 -109 -31 q-14 -20 -14 -139v-957q0 -119 14 -139q16 -27 109 -31l74 -4l6 -6v-47l-6 -6q-258 6 -275 6q-14 0 -272 -6l-6 6v47l6 6l73 4q92 4 109 31q14 20 14 139v944h-4l-479 -1030l-74 -166h-35l-90 209l-467 1024h-4v-590q0 -336 15 -473q4 -47 16 -59q20 -25 92 -29l72 -4l6 -6 v-47l-6 -6q-147 6 -231.5 6t-231.5 -6z" />
<glyph unicode="N" horiz-adv-x="1630" d="M238 618v560q0 109 -18.5 140.5t-78.5 35.5l-98 4l-6 6v47l6 6q16 0 45 -2t52.5 -3t43.5 -1l166 6q147 -201 444 -572l525 -640v588q0 338 -14 473q-4 47 -17 59q-20 25 -92 29l-72 4l-6 6v47l6 6q147 -6 231.5 -6t231.5 6l6 -6v-47l-6 -6l-71 -4q-72 -4 -93 -29 q-12 -12 -16 -59q-14 -135 -14 -473v-615q0 -102 8 -217q-53 20 -109 27l-977 1216h-4v-586q0 -336 15 -473q4 -47 16 -59q20 -25 92 -29l72 -4l6 -6v-47l-6 -6q-147 6 -231.5 6t-231.5 -6l-6 6v47l6 6l72 4q72 4 92 29q12 12 16 59q15 137 15 473z" />
<glyph unicode="O" horiz-adv-x="1669" d="M260 784q0 -199 59.5 -363.5t193.5 -274t325 -109.5q78 0 153.5 19.5t151.5 67.5t133 118.5t92 183.5t35 254q0 336 -165 518t-425 182q-231 0 -392 -154.5t-161 -441.5zM92 686q0 193 61.5 341.5t167 236.5t234.5 133t272 45q350 0 550 -188.5t200 -520.5 q0 -143 -51 -278.5t-146.5 -244t-246 -175t-332.5 -66.5q-158 0 -284 48.5t-203.5 122t-129 172t-72 190.5t-20.5 184z" />
<glyph unicode="P" horiz-adv-x="1214" d="M252 227v957q0 119 -14 139q-16 27 -109 31l-74 4l-6 6v47l6 6q258 -6 275 -6q39 0 152.5 3t179.5 3q244 0 375.5 -75.5t131.5 -260.5q0 -63 -28.5 -130.5t-86 -132t-158.5 -105.5t-228 -41q-74 0 -131 20l-19 58l6 6q61 -23 125 -23q184 0 268 95.5t84 224.5 q0 147 -94 222t-256 75q-143 0 -237 -15q-8 -72 -8 -243v-865q0 -119 14 -139q16 -27 108 -31l74 -4l6 -6v-47l-6 -6q-258 6 -272 6q-16 0 -275 -6l-6 6v47l6 6l74 4q92 4 109 31q14 20 14 139z" />
<glyph unicode="Q" horiz-adv-x="1669" d="M260 784q0 -199 59.5 -363.5t193.5 -274t325 -109.5q78 0 153.5 19.5t151.5 67.5t133 118.5t92 183.5t35 254q0 336 -165 518t-425 182q-231 0 -392 -154.5t-161 -441.5zM827 1442q350 0 550 -188.5t200 -520.5q0 -186 -80 -352t-249 -280.5t-394 -123.5v-4q47 0 221 -71 q268 -111 395 -111q66 0 132 31l6 -6v-33l-6 -8q-18 -8 -69.5 -41t-70.5 -51q-8 -8 -69 -9q-82 0 -351 101q-154 57 -193.5 69.5t-80.5 12.5q-70 0 -190 -82l-7 6v39l7 10q166 127 231 135v4h-8q-158 0 -284 48.5t-203.5 122t-129 172t-72 190.5t-20.5 184q0 193 61.5 341.5 t167 236.5t234.5 133t272 45z" />
<glyph unicode="R" horiz-adv-x="1290" d="M240 227v957q0 119 -15 139q-16 27 -108 31l-74 4l-6 6v47l6 6q258 -6 274 -6q53 0 168 3t162 3q483 0 483 -315q0 -160 -132 -265.5t-310 -121.5l461 -574q45 -57 71.5 -72.5t86.5 -15.5l6 -6v-47l-6 -6q-123 6 -129 6q-23 0 -65 -3t-52 -3q-461 590 -594 743l6 27 q49 -6 88 -6q201 0 301.5 96t100.5 221q0 274 -375 275q-119 0 -185 -17q-10 -111 -10 -332v-774q0 -119 15 -139q16 -27 108 -31l74 -4l6 -6v-47l-6 -6q-258 6 -273 6q-16 0 -274 -6l-6 6v47l6 6l74 4q92 4 108 31q15 20 15 139z" />
<glyph unicode="S" horiz-adv-x="1138" d="M905 1061h-53l-6 6l-4 125q-72 182 -291 182q-137 0 -215 -75.5t-78 -184.5q0 -53 20.5 -96t47 -70.5t86 -55.5t103.5 -43l132 -44q74 -23 116 -39t99.5 -47t87 -67t51 -93t21.5 -131q0 -180 -150.5 -319.5t-427.5 -139.5q-154 0 -321 68l-6 8q6 70 12 338l6 6h49l6 -6 q6 -127 21 -176q82 -164 293 -164q150 0 257 87t107 243q0 133 -78.5 188t-326.5 135q-63 20 -95 31.5t-87.5 42.5t-83 63.5t-50 89t-22.5 128.5q0 164 113.5 277.5t363.5 113.5q201 0 334 -74l6 -8q-31 -154 -31 -293z" />
<glyph unicode="T" horiz-adv-x="1140" d="M494 227v820q0 119 -7 290h-67q-117 0 -215 -8q-78 -6 -91.5 -15t-17.5 -59l-16 -157l-6 -6h-47l-7 6q0 17 1 34q0 137 -15 279l6 6q90 0 275 -4q47 0 141 -1t141 -1q49 0 143.5 1t141.5 1q184 4 274 4l7 -6q-15 -142 -15 -279v-34l-6 -6h-47l-6 6l-17 157 q-4 49 -17 58.5t-91 15.5q-98 8 -215 8h-68q-6 -172 -6 -290v-820q0 -119 15 -139q16 -27 108 -31l74 -4l6 -6v-47l-6 -6q-258 6 -273 6q-16 0 -274 -6l-6 6v47l6 6l74 4q92 4 108 31q15 20 15 139z" />
<glyph unicode="U" horiz-adv-x="1517" d="M215 401v783q0 119 -14 139q-16 27 -109 31l-74 4l-6 6v47l6 6q258 -6 277 -6q12 0 270 6l6 -6v-47l-6 -6l-73 -4q-92 -4 -109 -31q-14 -20 -14 -139v-729q0 -393 403 -394q311 0 412 205q47 94 47 338v189q0 338 -14 473q-4 47 -17 59q-20 25 -92 29l-72 4l-6 6v47l6 6 q147 -6 231.5 -6t231.5 6l6 -6v-47l-6 -6l-72 -4q-72 -4 -92 -29q-12 -12 -16 -59q-14 -135 -14 -473v-175q0 -166 -8.5 -242.5t-36.5 -137.5q-121 -268 -512 -269q-160 0 -269.5 35t-165 98.5t-77 135t-21.5 163.5z" />
<glyph unicode="V" horiz-adv-x="1327" d="M573 117l-374 952q-78 197 -107 239t-82 46l-47 4l-6 6v47l6 6q221 -6 231.5 -6t262.5 6l6 -6v-47l-6 -6l-76 -4q-90 -4 -90 -47q0 -41 31 -117l376 -995l256 663q156 399 156 449q0 43 -84 47l-94 4l-6 6v47l6 6q221 -6 231.5 -6t200.5 6l6 -6v-47l-6 -6l-59 -4 q-35 -4 -51.5 -21.5t-47.5 -83.5q-84 -182 -162 -375l-301 -759q-29 -70 -47 -133h-73q-17 49 -50 135z" />
<glyph unicode="W" horiz-adv-x="1972" d="M446 -18l-266 1146q-35 150 -58.5 186t-84.5 40l-51 4l-6 6v47l6 6q172 -6 219 -6q80 0 276 6l6 -6v-47l-6 -6l-108 -4q-66 -4 -66 -43q0 -10 12 -72l218 -1014h4l452 1200h43l408 -1200h4l264 965q23 82 23 117q0 43 -95 47l-84 4l-6 6v47l6 6q240 -6 242 -6 q29 0 59.5 1t69.5 3t60 2l6 -6v-47l-6 -6l-54 -4q-31 -2 -50 -13.5t-25.5 -20.5t-16.5 -30q-29 -57 -102 -301l-295 -1007h-64l-411 1167l-455 -1167h-68z" />
<glyph unicode="X" horiz-adv-x="1251" d="M348 418l215 299l-141 229q-113 184 -177.5 269t-93 102.5t-67.5 17.5q-10 0 -53 -6l-6 6v47l6 7l250 45l34 -41q90 -111 189 -281l155 -266l177 256q152 219 208 315q86 -6 109 -6q25 0 86 6l6 -6v-47l-6 -6l-47 -4q-31 -4 -56.5 -22.5t-70.5 -76.5l-365 -477l334 -536 q68 -111 97.5 -147t68.5 -38l55 -4l7 -6v-47l-7 -6q-111 6 -139 6q-18 0 -117 -6q-43 59 -98 153l-295 498l-61 -92q-219 -326 -357 -559q-61 6 -90 6q-35 0 -102 -6l-6 6v47l6 6l51 4q35 2 88 76z" />
<glyph unicode="Y" horiz-adv-x="1214" d="M559 227v365q-256 442 -330 545q-88 125 -135 161.5t-121 47.5l-6 6v34l6 7l193 49q23 -12 53 -33q115 -86 451 -733l180 293l260 448q8 0 21.5 -2t23.5 -3t20.5 -1t20.5 1t23.5 3t21.5 2l6 -6v-25l-6 -6q-100 -100 -328 -446q-133 -201 -180 -297q-20 -41 -20 -125v-285 q0 -119 14 -139q16 -27 109 -31l73 -4l6 -6v-47l-6 -6q-258 6 -272 6q-16 0 -275 -6l-6 6v47l6 6l74 4q92 4 109 31q14 20 14 139z" />
<glyph unicode="Z" horiz-adv-x="1290" d="M14 0v41q397 506 949 1296h-220q-295 0 -421 -12q-66 -6 -87.5 -33.5t-29.5 -122.5l-8 -79l-7 -7h-43l-6 7q4 61 4 165q0 82 -8 156l6 6q387 -6 521 -6q238 0 526 6l6 -6v-45q-49 -57 -120 -152l-175 -238l-168 -228l-489 -674h336q354 0 448 22q57 12 73.5 52t41.5 204 l6 6h47l6 -6q-16 -143 -18 -352l-6 -6q-76 0 -214.5 2t-252 3t-213.5 1q-274 0 -478 -6z" />
<glyph unicode="[" horiz-adv-x="681" d="M250 -2v1126q0 174 -12 355l6 6l190 -6q27 0 57.5 1t67.5 3t57 2l7 -6v-58l-7 -6l-135 -8q-37 -2 -53 -12.5t-25 -46.5q-14 -63 -14 -310v-954q0 -246 14 -309q8 -37 24.5 -47.5t53.5 -12.5l135 -8l7 -6v-57l-7 -6q-20 0 -57 2t-67.5 3t-57.5 1l-190 -6l-6 6 q12 180 12 354z" />
<glyph unicode="\" horiz-adv-x="645" d="M162 1436l418 -1461l-7 -6h-86l-6 6l-415 1461l6 6h84z" />
<glyph unicode="]" horiz-adv-x="681" d="M432 1124v-1126q0 -174 12 -354l-6 -6l-190 6q-27 0 -57.5 -1t-67.5 -3t-57 -2l-7 6v57l7 6l135 8q37 2 53 12.5t25 47.5q14 63 14 309v954q0 246 -14 310q-8 37 -24.5 47t-53.5 12l-135 8l-7 6v58l7 6q20 0 57 -2t67.5 -3t57.5 -1l190 6l6 -6q-12 -181 -12 -355z" />
<glyph unicode="^" horiz-adv-x="1228" d="M190 633l375 747h99l374 -747h-110l-314 614l-313 -614h-111z" />
<glyph unicode="_" horiz-adv-x="1024" d="M1024 -256h-1024v102h1024v-102z" />
<glyph unicode="`" horiz-adv-x="530" d="M344 1139l-332 207q-49 31 -49 69q0 29 19.5 49.5t52.5 20.5t80 -47l299 -299h-70z" />
<glyph unicode="a" d="M664 233v297q-27 -8 -125.5 -30.5t-147.5 -40.5q-78 -29 -123 -74t-45 -123t41 -130t135 -52q138 -1 265 153zM797 541v-383q0 -68 18.5 -87.5t85.5 -25.5l45 -4l6 -6v-35l-6 -6q-129 6 -143 6q-59 0 -133 -6l-13 12q6 76 7 156q-70 -70 -172 -144q-59 -43 -142 -43 q-274 0 -274 263q0 102 55 161.5t160 94.5q66 23 198 48t175 38v41q0 131 -55.5 188t-176.5 57q-90 0 -137 -35q-27 -18 -39 -51l-39 -96l-6 -6l-41 12l-6 6l-4 131l6 9q2 2 25 17l32 20q8 5 33 19.5t40 20.5l42 17q27 10 50.5 15t53 9t60.5 4q74 0 149.5 -32.5 t112.5 -106.5q33 -67 33 -278z" />
<glyph unicode="b" horiz-adv-x="1099" d="M303 578v-244q0 -35 2 -94.5t2 -61.5q111 -111 252 -110q154 0 238 119.5t84 283.5q0 145 -73 261t-224 116q-125 0 -232 -107q-35 -37 -42 -64t-7 -99zM170 535v690q0 100 -12 114q-14 18 -52 21l-86 4l-6 6v35l6 6q109 12 271 78l22 -14q-10 -123 -10 -463v-248h4 q18 25 73 78l62 61q76 55 185 55q182 0 287.5 -122.5t105.5 -296.5q0 -90 -19.5 -163t-57.5 -126t-68.5 -82t-79.5 -68q-109 -80 -159 -102.5t-138 -22.5q-121 0 -219 78l-97 -78l-30 19q18 84 18 541z" />
<glyph unicode="c" horiz-adv-x="872" d="M813 113l-37 -62q-111 -76 -284 -76q-78 0 -149 27t-131 80t-96 148.5t-36 218.5q0 186 67 284q53 80 178.5 152.5t249.5 72.5q117 0 224 -53l6 -10q-20 -84 -31 -246l-6 -6h-37l-6 6q0 98 -23 137q-14 25 -71.5 55.5t-128.5 30.5q-111 0 -197 -85t-86 -283 q0 -170 89 -303t259 -133q104 0 234 61z" />
<glyph unicode="d" horiz-adv-x="1138" d="M219 502q0 -172 80 -297t244 -125q96 0 162.5 58.5t85.5 105.5q23 61 22 282q0 127 -4 217q-35 47 -114 92.5t-187 45.5q-119 0 -204 -97.5t-85 -281.5zM813 889v336q0 100 -12 114q-14 18 -51 21l-86 4l-7 6v35l7 6q109 12 270 78l22 -14q-10 -123 -10 -463v-854 q0 -68 18.5 -87.5t86.5 -25.5l45 -4l6 -6v-35l-6 -6q-129 6 -144 6q-59 0 -133 -6l-12 12q6 76 6 156q-29 -18 -97.5 -76.5t-74.5 -62.5q-68 -47 -168 -48q-164 0 -278.5 125t-114.5 334q0 131 55 250q41 92 171 183t249 91q127 1 258 -69z" />
<glyph unicode="e" d="M506 891q-248 0 -279 -334q213 -4 299 -4q76 0 209 10q4 49 4 74q0 129 -74.5 191.5t-158.5 62.5zM868 145l-41 -75q-152 -94 -327 -95q-63 0 -129 22.5t-134.5 74t-112.5 151t-44 234.5q0 80 20.5 174t61.5 139q49 57 157.5 122.5t227.5 65.5q57 0 110.5 -16t109.5 -53 t91 -116t35 -189q0 -25 -4 -66q-111 -20 -389 -20h-273q0 -190 90.5 -310t253.5 -120q133 0 281 94z" />
<glyph unicode="f" horiz-adv-x="606" d="M193 201v604h-39q-33 0 -99 -8l-6 6v26l6 7l138 55q0 84 4 178q2 72 20.5 118t41 71.5t83.5 84.5q94 88 139 117t94 29q31 0 87 -10q-6 -37 -7 -68q0 -6 7 -92h-21q-63 43 -131 43q-184 0 -184 -229v-242h65q96 0 199 10l10 -8q-10 -66 -12 -82l-6 -6h-256v-604 q0 -109 14 -127q12 -16 149 -29l48 -4l6 -6v-35l-6 -6q-147 6 -269 6q-16 0 -225 -6l-6 6v35l6 6l47 4q70 6 88 27q15 16 15 129z" />
<glyph unicode="g" horiz-adv-x="1062" d="M1067 788l-221 5q29 -53 28 -150q0 -131 -107.5 -229.5t-303.5 -98.5h-45q-59 -31 -87 -58.5t-28 -68.5q0 -47 38 -65.5t126 -18.5q35 0 150.5 3.5t146.5 3.5q51 0 87 -7.5t76 -29t60.5 -71.5t20.5 -126q0 -193 -157 -314.5t-392 -121.5q-158 0 -268.5 78t-110.5 221 q0 70 37 127q14 23 73.5 64.5t110.5 66.5v4q-49 6 -93 37t-44 92q0 14 5 29.5t11 27t21 25.5l23 24q9 9 31 23l31 21l33 22l31 21v4q-223 55 -223 282q0 156 128 252t314 96q143 0 240 -88h33q152 0 250 17l8 -15zM213 -256q0 -113 91 -177.5t208 -64.5q150 0 256 85 t106 212q0 106 -47 149.5t-168 43.5q-18 0 -101 -2t-99 -2q-53 0 -103 4q-76 -51 -109.5 -108.5t-33.5 -139.5zM274 633q0 -111 61.5 -183.5t174.5 -72.5q92 0 158.5 66.5t66.5 193.5t-70.5 190.5t-160.5 63.5q-115 0 -172.5 -69.5t-57.5 -188.5z" />
<glyph unicode="h" horiz-adv-x="1175" d="M199 201v1024q0 100 -13 114q-14 18 -51 21l-86 4l-6 6v35l6 6q109 12 270 78l23 -14q-10 -123 -10 -463v-234q35 25 92 75t78 75q74 31 160 30q92 0 156.5 -30.5t97 -83.5t47 -108.5t14.5 -117.5v-460q0 -68 18.5 -87.5t85.5 -25.5l45 -4l7 -6v-35l-7 -6q-129 6 -143 6 q-51 0 -137 -6l-12 12q10 137 10 479q0 72 -3 116t-17.5 97.5t-41 82t-76 48t-120.5 19.5q-59 0 -117.5 -30t-87.5 -58.5t-35 -42.5q-14 -33 -14 -219v-127q0 -246 14 -287q6 -18 26.5 -26.5t78.5 -12.5l49 -4l6 -6v-35l-6 -6q-215 6 -226 6q-16 0 -225 -6l-6 6v35l6 6l47 4 q70 6 88 27q15 16 15 129z" />
<glyph unicode="i" horiz-adv-x="530" d="M199 201v493q0 100 -13 115q-14 18 -51 20l-94 5l-6 6v34l6 7q115 10 278 77l19 -12q-6 -57 -6 -252v-493q0 -113 14 -129q18 -20 88 -27l55 -4l7 -6v-35l-7 -6q-12 0 -97 3t-126 3q-31 0 -67.5 -1t-83.5 -3t-74 -2l-6 6v35l6 6l55 4q70 6 88 27q15 16 15 129zM164 1288 q0 41 29.5 71t70.5 30t71 -30t30 -71t-30 -70.5t-71 -29.5t-70.5 29.5t-29.5 70.5z" />
<glyph unicode="j" horiz-adv-x="493" d="M180 -8v702q0 100 -12 115q-14 18 -51 20l-94 5l-7 6v34l7 7q115 10 278 77l18 -12q-6 -57 -6 -252v-696q0 -522 -348 -557l-22 59l6 6q16 -4 28 -4q203 1 203 490zM158 1288q0 41 29.5 71t70.5 30t70.5 -30t29.5 -71t-29.5 -70.5t-70.5 -29.5t-70.5 29.5t-29.5 70.5z " />
<glyph unicode="k" horiz-adv-x="1062" d="M180 201v1024q0 100 -12 114q-14 18 -51 21l-94 4l-7 6v35l7 6q115 10 278 78l23 -14q-10 -123 -11 -463v-492q88 66 218.5 188.5t218.5 235.5h221l6 -6v-37l-6 -6q-43 0 -79 -12.5t-143.5 -89t-285.5 -228.5q233 -244 381 -372q96 -84 125.5 -102.5t79.5 -18.5v-33 l-181 -57q-88 70 -247 229q-258 260 -308 297v-307q0 -113 15 -129q18 -20 88 -27l55 -4l6 -6v-35l-6 -6q-27 0 -74 2t-84 3t-69 1q-29 0 -66 -1t-82 -3t-73 -2l-7 6v35l7 6l55 4q70 6 88 27q14 16 14 129z" />
<glyph unicode="l" horiz-adv-x="530" d="M199 201v1024q0 100 -13 114q-14 18 -51 21l-94 4l-6 6v35l6 6q115 10 278 78l23 -14q-10 -123 -10 -463v-811q0 -113 14 -129q18 -20 88 -27l55 -4l7 -6v-35l-7 -6q-27 0 -73.5 2t-83.5 3t-70 1q-29 0 -65.5 -1t-81.5 -3t-74 -2l-6 6v35l6 6l55 4q70 6 88 27 q15 16 15 129z" />
<glyph unicode="m" horiz-adv-x="1742" d="M199 201v493q0 100 -13 115q-14 18 -51 20l-86 5l-6 6v34l6 7q109 12 270 77l13 -12v-168q100 74 170 148q66 33 139 32q86 0 147.5 -34.5t82 -65.5t44.5 -80q35 25 92.5 75t77.5 75q74 31 160 30q152 0 225.5 -99t73.5 -241v-460q0 -68 18.5 -87.5t86.5 -25.5l45 -4 l6 -6v-35l-6 -6q-129 6 -144 6q-51 0 -137 -6l-12 12q10 137 10 479q0 88 -7 143.5t-28.5 111t-72 82t-127.5 26.5q-63 0 -131 -34t-107 -85v-528q0 -113 14 -129q18 -20 88 -27l47 -4l7 -6v-35l-7 -6q-209 6 -217 6q-12 0 -215 -6l-6 6v35l6 6l47 4q70 6 89 27 q14 16 14 129v399q0 123 -50 185.5t-169 62.5q-59 0 -117.5 -30t-87.5 -58.5t-35 -42.5q-14 -33 -14 -219v-127q0 -246 14 -287q6 -18 26.5 -26.5t78.5 -12.5l49 -4l6 -6v-35l-6 -6q-215 6 -226 6q-16 0 -225 -6l-6 6v35l6 6l47 4q70 6 88 27q15 16 15 129z" />
<glyph unicode="n" horiz-adv-x="1175" d="M199 201v493q0 100 -13 115q-14 18 -51 20l-86 5l-6 6v34l6 7q109 12 270 77l13 -12v-168q35 25 92 75t78 75q74 31 160 30q92 0 156.5 -30.5t97 -83.5t47 -108.5t14.5 -117.5v-460q0 -68 18.5 -87.5t85.5 -25.5l45 -4l7 -6v-35l-7 -6q-129 6 -143 6q-51 0 -137 -6 l-12 12q10 137 10 479q0 72 -3 116t-17.5 97.5t-41 82t-76 48t-120.5 19.5q-59 0 -117.5 -30t-87.5 -58.5t-35 -42.5q-14 -33 -14 -219v-127q0 -246 14 -287q6 -18 26.5 -26.5t78.5 -12.5l49 -4l6 -6v-35l-6 -6q-215 6 -226 6q-16 0 -225 -6l-6 6v35l6 6l47 4q70 6 88 27 q15 16 15 129z" />
<glyph unicode="o" horiz-adv-x="1099" d="M80 461q0 219 135 358t346 139q205 0 332 -125.5t127 -355.5q0 -217 -140.5 -359.5t-332.5 -142.5q-102 0 -185 33t-134.5 84t-86.5 117.5t-48 129.5t-13 122zM547 37q319 0 319 422q0 186 -80.5 312t-248.5 126q-139 0 -221.5 -97.5t-82.5 -283.5q0 -219 83.5 -349 t230.5 -130z" />
<glyph unicode="p" horiz-adv-x="1138" d="M317 573v-415q86 -96 234 -97q170 0 260 119t90 297q0 199 -91 286t-208 87q-113 0 -221 -98q-43 -37 -53.5 -68t-10.5 -111zM317 18v-194q0 -246 15 -287q10 -31 94 -39l49 -4l6 -6v-35l-6 -6q-184 6 -215 6q-16 0 -225 -6l-6 6v35l6 6l47 4q70 6 88 27q14 16 14 129 v1040q0 100 -12 115q-14 18 -51 20l-86 5l-6 6v34l6 7q109 12 270 77l12 -12v-184q131 123 196 159.5t146 36.5q160 0 270.5 -112.5t110.5 -313.5q0 -150 -56 -250t-169 -182q-92 -66 -163.5 -95.5t-162.5 -29.5q-92 0 -172 43z" />
<glyph unicode="q" horiz-adv-x="1099" d="M797 205v485q0 80 -6 98q-33 31 -109 64t-141 33q-147 0 -234.5 -108.5t-87.5 -301.5q0 -147 85 -271t231 -124q86 0 139 28.5t123 96.5zM797 -176v307q-141 -82 -234 -147q-25 -8 -82 -9q-195 0 -298 143.5t-103 344.5q0 150 70 248q55 84 178 165.5t258 81.5 q106 0 270 -63l86 63l21 -18q-33 -145 -33 -436v-850q0 -113 14 -129q18 -20 88 -27l47 -4l6 -6v-35l-6 -6q-209 6 -225 6q-31 0 -215 -6l-6 6v35l6 6l49 4q84 8 94 39q15 41 15 287z" />
<glyph unicode="r" horiz-adv-x="720" d="M190 201v493q0 100 -12 115q-14 18 -51 20l-86 5l-6 6v34l6 7q109 12 270 77l13 -12v-198l109 118q32 33 79 62.5t88 29.5q47 0 100 -20l7 -10q-18 -68 -19 -148h-12q-45 45 -115 45q-98 0 -199 -110q-39 -43 -38 -74v-440q0 -109 14 -127q12 -16 149 -29l48 -4l6 -6v-35 l-6 -6q-147 6 -269 6q-16 0 -225 -6l-6 6v35l6 6l47 4q70 6 88 27q14 16 14 129z" />
<glyph unicode="s" horiz-adv-x="833" d="M150 256l4 -102q31 -45 93 -81t148 -36t159 50t73 157q0 86 -47.5 115.5t-161.5 48.5q-68 10 -119 24t-107.5 41t-87 75t-30.5 114q0 139 110.5 217.5t245.5 78.5q168 0 275 -55l6 -6q-12 -47 -21 -205l-6 -6h-37l-6 6l-12 103q-2 12 -23.5 34.5t-74 45t-117.5 22.5 q-82 0 -144.5 -48t-62.5 -134q0 -70 43 -107t139 -55l137 -27q59 -12 92 -21t71 -32.5t54.5 -64.5t16.5 -103q0 -135 -109.5 -232.5t-320.5 -97.5q-117 0 -242 45l-6 7q12 143 14 229l6 6h41z" />
<glyph unicode="t" horiz-adv-x="645" d="M39 836l154 55q0 225 -9 303q61 16 138 51l22 -12q-16 -172 -18 -342h69q61 0 209 12l14 -10q-14 -53 -16 -86l-6 -6q-41 4 -70 4h-200v-606q0 -125 129 -125q72 0 123 37l18 -25l-59 -76q-74 -35 -146 -35q-102 0 -153.5 51.5t-51.5 137.5q0 123 3.5 334t3.5 307h-56 q-33 0 -98 -8l-6 6v26z" />
<glyph unicode="u" horiz-adv-x="1138" d="M180 270v424q0 100 -12 115q-14 18 -51 20l-94 5l-7 6v34l7 7q115 10 278 77l18 -12q-6 -57 -6 -252v-266q0 -197 31 -258q16 -31 63.5 -60.5t110.5 -29.5q135 0 248 127q41 45 41 172v315q0 100 -12 115q-14 18 -52 20l-94 5l-6 6v34l6 7q115 10 279 77l18 -12 q-6 -57 -6 -252v-536q0 -68 18.5 -87.5t85.5 -25.5l46 -4l6 -6v-35l-6 -6q-129 6 -144 6q-51 0 -137 -6l-6 6q4 119 4 176l-131 -121q-31 -29 -51.5 -42t-64.5 -25.5t-105 -12.5q-80 0 -136.5 27t-85 73t-41 94t-12.5 101z" />
<glyph unicode="v" d="M332 291l-121 276q-109 248 -137 283q-20 27 -47 29l-60 4l-6 6v35l6 6q20 0 57 -2t68 -3t58 -1q2 0 253 6l7 -6v-35l-7 -6l-71 -4q-68 -4 -68 -37q0 -39 105 -283l163 -389l199 457q70 156 70 209q0 37 -72 43l-63 4l-7 6v35l7 6q18 0 52 -2t61.5 -3t51.5 -1q2 0 187 6 l6 -6v-35l-6 -6l-37 -4q-45 -4 -69.5 -39t-90.5 -183l-157 -354q-84 -190 -125 -321h-93q-14 76 -114 309z" />
<glyph unicode="w" horiz-adv-x="1554" d="M313 678l148 -504l74 168l235 563l10 29h56q76 -268 272 -760l63 160l66 168l51 135q29 76 41 121t12 65q0 51 -90 56l-59 4l-6 6v35l6 6q20 0 57 -2t68 -3t57 -1q29 0 59.5 1t69.5 3t62 2l6 -6v-35l-6 -6l-31 -4q-12 -2 -24 -6l-19 -5q-8 -2 -16.5 -10t-13.5 -11 t-12 -15.5t-11 -18.5t-12 -23l-10 -25l-13 -32l-14 -35q-104 -256 -275 -716h-82q-68 195 -270 716l-170 -383q-94 -221 -131 -333h-86q-53 213 -193 647q-51 160 -75.5 202.5t-73.5 47.5l-43 4l-6 6v35l6 6q184 -6 186 -6t242 6l6 -6v-35l-6 -6l-43 -4q-57 -6 -76.5 -16.5 t-19.5 -35.5q-1 -28 34 -149z" />
<glyph unicode="x" horiz-adv-x="909" d="M403 455l-124 180q-94 135 -138.5 178t-97.5 49l-33 4l-6 6v29l6 6q139 10 197 33l10 -6q27 -25 66 -75t67 -93l77 -113l65 -94q211 270 264 365l8 6q55 -6 78 -6q20 0 57 6l6 -6v-35l-6 -6l-33 -4q-25 -2 -60.5 -41t-119.5 -142l-158 -194l236 -346q31 -47 55.5 -72 t34.5 -31t27 -8l22 -4l6 -4v-37l-6 -6q-74 6 -104 6q-27 0 -88 -6l-9 6l-262 397q-111 -141 -280 -397l-8 -6q-6 0 -33 3t-41 3q-47 0 -72 -6l-6 6v37l6 4l10 4q2 0 11.5 4t12.5 5t12 6.5l15.5 9.5t16.5 13l20 18q10 9 23.5 23.5t28.5 33.5z" />
<glyph unicode="y" d="M14 -535l33 129l19 13q39 -43 100 -43q47 0 85 26.5t56.5 56t46.5 89.5q35 72 101 229q-33 117 -147 384l-169 388q-29 63 -53.5 94t-39.5 37t-44 11l-35 4l-6 6v35l6 6q178 -6 180 -6q39 0 81 1t94.5 3t80.5 2l7 -6v-35l-7 -6l-53 -4q-88 -8 -88 -45q0 -43 113 -302 l160 -370l57 131q207 463 207 530q0 27 -18.5 39t-67.5 17l-45 4l-6 6v35l6 6q18 0 51 -2t60.5 -3t51.5 -1q2 0 187 6l6 -6v-35l-6 -6l-31 -4q-37 -4 -64.5 -35t-72.5 -123t-141 -315l-279 -652q-70 -164 -144.5 -238.5t-191.5 -74.5q-49 0 -76 18z" />
<glyph unicode="z" horiz-adv-x="948" d="M45 0l-14 43q63 72 248 308l380 511h-63q-211 0 -284.5 -5t-96.5 -28q-41 -41 -53 -163l-6 -7h-43l-7 7q12 115 13 165q0 63 -2 89l14 10q59 0 157.5 -2t179.5 -3t159 -1q31 0 221 6l6 -6v-45q-139 -158 -629 -818q412 8 465 17q61 8 90 45t45 151l6 7h39l7 -7 q-18 -98 -25 -274l-6 -6q-51 2 -151.5 2t-151.5 2q-102 2 -305 2q-115 0 -185 -6z" />
<glyph unicode="{" horiz-adv-x="681" d="M252 805v377q0 160 64.5 231.5t242.5 71.5l6 -6v-19l-6 -6q-100 -18 -134 -81.5t-34 -176.5v-358q0 -121 -32.5 -185.5t-139.5 -89.5v-4q106 -25 139 -89t33 -185v-359q0 -113 34 -176t134 -82l6 -6v-18l-6 -6q-178 0 -242.5 71.5t-64.5 231.5v376q0 106 -31 162t-125 82 q94 27 125 82.5t31 161.5z" />
<glyph unicode="|" horiz-adv-x="454" d="M178 -512v2048h98v-2048h-98z" />
<glyph unicode="}" horiz-adv-x="681" d="M430 317v-376q0 -160 -64.5 -231.5t-242.5 -71.5l-6 6v18l6 6q100 18 134 82t34 176v359q0 121 32.5 185.5t139.5 88.5v4q-106 25 -139 89.5t-33 185.5v358q0 113 -34 176.5t-134 81.5l-6 6v19l6 6q178 0 242.5 -72t64.5 -231v-377q0 -106 31 -161.5t125 -82.5 q-94 -27 -125 -82.5t-31 -161.5z" />
<glyph unicode="~" horiz-adv-x="1228" d="M215 399l-74 62q92 176 256 176q80 0 235.5 -69.5t201.5 -69.5q39 0 75.5 25.5t52.5 44.5l52 69l73 -62q-41 -55 -67.5 -85.5t-77.5 -60.5t-111 -30q-18 0 -33.5 1t-35 7.5t-28.5 8.5t-31.5 12t-27.5 12t-32 15.5t-29 13.5q-2 2 -19 10t-21.5 10.5t-20.5 9.5t-22 9l-20 8 q-15 6 -23.5 8t-21.5 6.5t-24.5 5.5t-26 2t-28.5 1q-100 -1 -172 -140z" />
<glyph unicode="&#xa1;" horiz-adv-x="606" d="M328 532l61 -981l-131 -69h-43q-6 39 -6 80q0 127 31.5 449.5t31.5 484.5l45 43zM410 834q0 -43 -32 -76t-75 -33t-74.5 33t-31.5 76t31.5 73.5t74.5 30.5q41 0 74 -30.5t33 -73.5z" />
<glyph unicode="&#xa2;" horiz-adv-x="1024" d="M389 164l217 702q-25 6 -55 6q-111 0 -197 -85t-86 -283q0 -217 121 -340zM664 848l-226 -727q76 -53 178 -53q104 0 234 61l12 -16l-37 -62q-111 -76 -284 -76q-68 0 -140 23l-59 -188l-6 -7h-49l-6 7l65 213q-217 117 -217 426q0 186 68 284q53 80 178 152.5t250 72.5 h10l43 138l6 6h49l6 -6l-43 -142q72 -10 152 -49l6 -10q-20 -84 -31 -246l-6 -6h-37l-6 6q0 98 -22 137q-22 35 -88 62z" />
<glyph unicode="&#xa3;" horiz-adv-x="1024" d="M242 575v72q-94 0 -187 -6l-10 14l14 60l11 8q4 0 17 -1t26 -1h129q-2 57 -3 102t-1 60q0 98 18 170q35 139 203 248.5t311 109.5q84 0 178 -49l6 -10q-18 -201 -20 -267l-6 -6h-43l-6 6l-9 160q-78 74 -184 74q-96 0 -176 -64.5t-98 -181.5q-6 -39 -17.5 -187.5 t-13.5 -164.5h268q63 0 94 6l11 -10l-23 -64l-12 -12q-98 6 -223 6h-119q-20 -162 -55 -267.5t-125 -248.5q94 12 188 12q98 0 264 -15t168 -15q31 0 43 61l27 133l6 6h41l6 -6q-12 -104 -12 -297l-6 -6q-70 -25 -117 -24q-96 0 -321.5 41.5t-327.5 44.5q-39 -51 -84 -97 h-31l4 92q53 37 86 64q16 16 36.5 51t47.5 145.5t27 253.5z" />
<glyph unicode="&#xa4;" horiz-adv-x="1024" d="M4 252l115 113q-115 125 -115 317t115 317l-115 113l78 78l115 -113q133 113 315 113t315 -113l115 113l78 -78l-115 -113q115 -125 115 -317.5t-115 -316.5l115 -113l-78 -78l-115 113q-133 -113 -315 -113t-315 113l-115 -113zM102 682q0 -170 121 -290t289 -120 t289 120t121 290t-121 290t-289 120t-289 -120t-121 -290z" />
<glyph unicode="&#xa5;" horiz-adv-x="1024" d="M442 221v146h-311l-6 6v55l6 6h311v133l-18 43h-293l-6 6v56l6 6h264q-156 356 -198 420q-80 121 -123 156.5t-109 43.5l-6 7v34l6 7l174 47q33 -18 47 -33q31 -25 71 -86.5t86 -154.5l77 -158q31 -66 75 -169.5t48 -113.5l164 258l235 434q8 0 28.5 -2t31 -2t30 2 t27.5 2l6 -8v-21l-6 -8q-98 -106 -295 -432q-86 -137 -131 -223h260l6 -6v-56l-6 -6h-295q-16 -37 -16 -116v-60h311l6 -6v-55l-6 -6h-311v-146q0 -117 14 -133q10 -27 98 -31l66 -4l6 -6v-47l-6 -6q-233 6 -246 6q-16 0 -250 -6l-6 6v47l6 6l68 4q86 4 96 31q14 16 14 133z " />
<glyph unicode="&#xa6;" horiz-adv-x="454" d="M178 -358v716h98v-716h-98zM178 666v716h98v-716h-98z" />
<glyph unicode="&#xa7;" horiz-adv-x="1024" d="M815 1053h-43l-6 6q-2 37 -25 198q-78 86 -229 86q-133 0 -209 -72.5t-76 -170.5q0 -82 45 -133.5t146 -87.5l280 -105q121 -45 181.5 -105.5t60.5 -150.5q0 -76 -38 -147.5t-69.5 -102t-60.5 -51.5q37 -23 60.5 -42t48 -66.5t24.5 -106.5q0 -166 -146.5 -309.5 t-365.5 -143.5q-162 0 -274 101l-6 12q27 160 26 283l6 6h37l6 -6q10 -104 25 -203q88 -94 270 -94q145 0 228.5 74.5t83.5 181t-58.5 157t-183.5 95.5l-209 73q-63 23 -94 37.5t-78 45t-67.5 75.5t-20.5 109q0 162 178 295q-139 80 -139 215q0 61 29.5 133.5t82 141.5 t141.5 115t193 46q131 0 271 -68l6 -10q-25 -156 -25 -305zM586 670l-281 94q-111 -68 -110 -191q0 -90 50 -135t150 -82q31 -12 154 -54t180 -66q106 115 107 208q0 31 -6.5 52.5t-28 52.5t-76.5 61.5t-139 59.5z" />
<glyph unicode="&#xa8;" horiz-adv-x="530" d="M371 1272q0 37 27.5 65.5t66.5 28.5q37 0 65.5 -28.5t28.5 -65.5t-28.5 -65.5t-65.5 -28.5q-39 0 -66.5 28.5t-27.5 65.5zM-29 1272q0 37 28 65.5t64.5 28.5t66.5 -28.5t30 -65.5t-30 -65.5t-66.5 -28.5t-64.5 28.5t-28 65.5z" />
<glyph unicode="&#xa9;" horiz-adv-x="1638" d="M1161 518l-35 -153q-6 -20 -67 -39q-104 -29 -211 -29q-221 0 -334 119t-113 305q0 178 126 295t333 117q137 0 227 -37q41 -16 41 -47v-148h-36q0 78 -55.5 130t-184.5 52q-154 0 -235.5 -97t-81.5 -257q0 -178 83.5 -280.5t253.5 -102.5q186 0 261 172h28zM84 706.5 q0 305.5 216 520.5t519 215t519 -215t216 -520.5t-216 -520.5t-519 -215t-519 215t-216 520.5zM195 706.5q0 -264.5 184 -450.5t440 -186t440.5 186t184.5 450.5t-184.5 450.5t-440.5 186t-440 -186t-184 -450.5z" />
<glyph unicode="&#xaa;" horiz-adv-x="641" d="M432 981v170l-78 -16q-68 -14 -100 -27q-49 -18 -76.5 -44t-27.5 -71q0 -104 110 -104q80 0 172 92zM524 1159v-223q0 -39 11.5 -49t56.5 -17l29 -4l4 -4v-26l-4 -5q-66 4 -99 5q-57 0 -86 -5l-8 9q4 61 4 92q-57 -49 -113 -86q-39 -25 -92 -25q-182 0 -182 158 q0 111 143 156q43 14 129 28.5t115 22.5v16q0 78 -36 113t-115 35q-51 0 -88 -21q-14 -10 -27 -31l-25 -59l-4 -2l-26 6l-5 4l-2 84l5 6q2 2 16 10.5l20.5 12.5t21.5 12t25.5 12.5t29 10.5t33.5 9t35.5 5t41.5 2q127 0 170 -84q22 -41 22 -168z" />
<glyph unicode="&#xab;" d="M92 449v32q127 106 354 346h7l36 -22v-8q-82 -104 -237 -332q84 -137 237 -332v-6l-36 -25h-7q-231 247 -354 347zM483 449v32q127 106 355 346h6l37 -22v-8q-82 -104 -238 -332q84 -137 238 -332v-6l-37 -25h-6q-232 247 -355 347z" />
<glyph unicode="&#xac;" horiz-adv-x="1228" d="M1034 227v443h-938v98h1037v-541h-99z" />
<glyph unicode="&#xad;" horiz-adv-x="872" d="M723 555l10 -14q-31 -33 -43 -84q-264 6 -266 6q-39 0 -84 -1t-99.5 -3t-84.5 -2l-17 12l43 86q31 0 86.5 -2t100.5 -3t86 -1t85 1t98 3t85 2z" />
<glyph unicode="&#xae;" horiz-adv-x="1638" d="M696 1053v-351h111q162 0 162 189q0 162 -189 162h-84zM483 317v37q53 0 78 21.5t25 81.5v499q0 92 -103 97v37h330q125 0 202 -46.5t77 -140.5q0 -84 -47.5 -142.5t-126.5 -82.5l143 -209q29 -43 43 -60.5t43 -36t63 -18.5v-37h-112q-63 0 -129 97l-168 252h-105v-209 q0 -61 27 -82t92 -21v-37h-332zM84 706.5q0 305.5 216 520.5t519 215t519 -215t216 -520.5t-216 -520.5t-519 -215t-519 215t-216 520.5zM195 706.5q0 -264.5 184 -450.5t440 -186t440.5 186t184.5 450.5t-184.5 450.5t-440.5 186t-440 -186t-184 -450.5z" />
<glyph unicode="&#xaf;" horiz-adv-x="530" d="M-6 1225v98h543v-98h-543z" />
<glyph unicode="&#xb0;" horiz-adv-x="819" d="M117 1106q0 121 86 207t206.5 86t206.5 -86t86 -207t-86 -207t-206.5 -86t-206.5 86t-86 207zM203 1106q0 -86 60.5 -146.5t146.5 -60.5t146 60.5t60 146.5t-60 146.5t-146 60.5t-146.5 -60.5t-60.5 -146.5z" />
<glyph unicode="&#xb1;" horiz-adv-x="1228" d="M565 659v377h99v-377h469v-98h-469v-377h-99v377h-469v98h469zM96 0v98h1037v-98h-1037z" />
<glyph unicode="&#xb2;" horiz-adv-x="665" d="M41 553v33l53 51q240 231 306.5 319t66.5 187q0 82 -46 126t-128 44q-35 0 -71 -10.5t-55.5 -20.5t-21.5 -14q-8 -12 -45 -125l-4 -2h-26l-4 2q18 100 24 174l4 4q25 25 86.5 51.5t132.5 26.5q119 0 188.5 -62.5t69.5 -165.5q0 -72 -48 -149.5t-179 -200.5l-199 -186h248 q133 0 228 8l4 -4q-6 -20 -6.5 -45t6.5 -41l-4 -4q-33 0 -90.5 2t-103.5 3t-87 1q-8 0 -297 -6z" />
<glyph unicode="&#xb3;" horiz-adv-x="665" d="M51 750l27 8l4 -4q39 -96 91 -133t128 -37q84 0 145.5 52t61.5 159q0 170 -172 170q-70 0 -115 -23l-6 6q10 33 14 66q43 -6 54 -6q88 0 137 47t49 123q0 55 -39 95t-129 40t-129 -39q-8 -6 -45 -98l-4 -5h-31l-4 5q25 55 43 153q80 70 201 70q96 0 165.5 -50.5 t69.5 -138.5q0 -66 -48 -118t-107 -80v-4q207 -18 206 -177q0 -125 -107.5 -210.5t-250.5 -85.5q-90 0 -168 32q-16 94 -45 176z" />
<glyph unicode="&#xb4;" horiz-adv-x="530" d="M117 1139l299 299q47 47 79.5 47t52 -20.5t19.5 -49.5q0 -39 -49 -69l-332 -207h-69z" />
<glyph unicode="&#xb5;" horiz-adv-x="1138" d="M940 694v-536q0 -68 18.5 -87.5t85.5 -25.5l46 -4l6 -6v-35l-6 -6q-129 6 -144 6q-51 0 -137 -6l-6 6q4 119 4 176l-131 -121q-31 -29 -51.5 -42t-64.5 -25.5t-105 -12.5q-102 0 -142 45v-241q0 -197 21 -320l-12 -12q-37 6 -76 6q-31 0 -74 -6l-12 12q20 123 20 320v506 v409q0 100 -12 115q-14 18 -51 20l-94 5l-7 6v34l7 7q115 10 278 77l18 -12q-6 -57 -6 -252v-266q0 -197 31 -258q16 -31 63.5 -60.5t110.5 -29.5q135 0 248 127q41 45 41 172v315q0 100 -12 115q-14 18 -52 20l-94 5l-6 6v34l6 7q115 10 279 77l18 -12q-6 -57 -6 -252z" />
<glyph unicode="&#xb6;" horiz-adv-x="1228" d="M555 637v719q-287 0 -287 -348q0 -182 78 -276.5t209 -94.5zM555 -246v821q-420 0 -420 437q0 213 104.5 309t323.5 96h490v-41l-62 -4q-78 -6 -95 -29.5t-17 -105.5v-1483q0 -82 17 -105.5t95 -29.5l62 -4v-41h-273v1782h-127v-1782h-272v41l61 4q78 6 95.5 29.5 t17.5 105.5z" />
<glyph unicode="&#xb7;" horiz-adv-x="512" d="M141 629q0 47 34 80.5t81 33.5t81 -33.5t34 -80.5t-34 -81t-81 -34t-81 34t-34 81z" />
<glyph unicode="&#xb8;" horiz-adv-x="530" d="M162 -209l92 209h70l-64 -141q27 10 76 10q68 0 112 -38t44 -101q0 -70 -59.5 -121t-180.5 -51q-106 0 -168 28l-4 11l20 45l11 6q63 -23 110 -23q61 0 96 24.5t35 65.5q0 80 -96 80q-29 0 -61 -14z" />
<glyph unicode="&#xb9;" horiz-adv-x="665" d="M293 700v592q0 23 -6 23q-8 0 -66 -27l-155 -74l-9 5q0 8 -2 18t-3 17.5t-1 11.5q0 10 68 30q135 43 264 115l23 -12q-8 -47 -9 -154v-545q0 -88 19 -98q2 -2 88 -8l59 -4l4 -4v-33l-4 -4q-209 6 -221 6q-23 0 -213 -6l-4 4v33l4 4l57 4q84 6 88 8q19 8 19 98z" />
<glyph unicode="&#xba;" horiz-adv-x="665" d="M27 1112q0 131 88 215t225 84q135 0 217 -75.5t82 -213.5q0 -131 -91 -216t-216 -85q-158 0 -231.5 92.5t-73.5 198.5zM131 1133q0 -113 55.5 -191t145.5 -78q88 0 145.5 57.5t57.5 188.5q0 104 -53.5 181t-149.5 77q-201 1 -201 -235z" />
<glyph unicode="&#xbb;" d="M893 481v-32q-127 -106 -354 -347h-7l-36 23v8q82 104 237 332q-84 137 -237 332v6l36 24h7q231 -246 354 -346zM502 481v-32q-127 -106 -355 -347h-6l-37 23v8q82 104 238 332q-84 137 -238 332v6l37 24h6q232 -246 355 -346z" />
<glyph unicode="&#xbc;" horiz-adv-x="1536" d="M1202 147v78h-160q-143 0 -194 -2l-12 31q180 305 323 504l45 67l82 31l12 -12l-4 -551q92 0 131 4q-4 -25 -4 -37q0 -8 4 -41q-61 6 -133 6v-78q0 -86 21 -98q18 -10 59 -10l55 -2l5 -4v-35l-5 -4q-84 6 -178 6q-123 0 -205 -6l-4 4v35l4 4l52 2q76 2 88 10q18 10 18 98 zM1202 293l4 461l-4 2q-178 -260 -295 -463h295zM281 -59l923 1486l6 7h82l6 -7l-921 -1486l-6 -7h-84zM293 700v592q0 23 -6 23q-8 0 -66 -27l-155 -74l-9 5q0 8 -2 18t-3 17.5t-1 11.5q0 10 68 30q135 43 264 115l23 -12q-8 -47 -9 -154v-545q0 -88 19 -98q2 -2 88 -8 l59 -4l4 -4v-33l-4 -4q-209 6 -221 6q-23 0 -213 -6l-4 4v33l4 4l57 4q84 6 88 8q19 8 19 98z" />
<glyph unicode="&#xbd;" horiz-adv-x="1536" d="M260 -59l924 1486l6 7h82l6 -7l-922 -1486l-6 -7h-84zM293 700v592q0 23 -6 23q-8 0 -66 -27l-155 -74l-9 5q0 8 -2 18t-3 17.5t-1 11.5q0 10 68 30q135 43 264 115l23 -12q-8 -47 -9 -154v-545q0 -88 19 -98q2 -2 88 -8l59 -4l4 -4v-33l-4 -4q-209 6 -221 6 q-23 0 -213 -6l-4 4v33l4 4l57 4q84 6 88 8q19 8 19 98zM911 -2v33l54 51q240 231 306 319t66 187q0 82 -46 126t-128 44q-35 0 -70.5 -10.5t-55 -20.5t-21.5 -14q-8 -12 -45 -125l-4 -2h-27l-4 2q18 100 25 174l4 4q25 25 86 51.5t133 26.5q119 0 188.5 -62.5t69.5 -165.5 q0 -72 -48 -149.5t-180 -200.5l-198 -186h248q133 0 227 8l4 -4q-6 -23 -6 -45q0 -27 6 -41l-4 -4q-33 0 -90.5 2t-103.5 3t-87 1q-8 0 -297 -6z" />
<glyph unicode="&#xbe;" horiz-adv-x="1536" d="M1202 147v78h-160q-143 0 -194 -2l-12 31q180 305 323 504l45 67l82 31l12 -12l-4 -551q92 0 131 4q-4 -25 -4 -37q0 -8 4 -41q-61 6 -133 6v-78q0 -86 21 -98q18 -10 59 -10l55 -2l5 -4v-35l-5 -4q-84 6 -178 6q-123 0 -205 -6l-4 4v35l4 4l52 2q76 2 88 10q18 10 18 98 zM1202 293l4 461l-4 2q-178 -260 -295 -463h295zM281 -59l923 1486l6 7h82l6 -7l-921 -1486l-6 -7h-84zM51 750l27 8l4 -4q39 -96 91 -133t128 -37q84 0 145.5 52t61.5 159q0 170 -172 170q-70 0 -115 -23l-6 6q10 33 14 66q43 -6 54 -6q88 0 137 47t49 123q0 55 -39 95 t-129 40t-129 -39q-8 -6 -45 -98l-4 -5h-31l-4 5q25 55 43 153q80 70 201 70q96 0 165.5 -50.5t69.5 -138.5q0 -66 -48 -118t-107 -80v-4q207 -18 206 -177q0 -125 -107.5 -210.5t-250.5 -85.5q-90 0 -168 32q-16 94 -45 176z" />
<glyph unicode="&#xbf;" horiz-adv-x="948" d="M502 496l24 26h9q68 -55 67 -125q0 -74 -98 -188l-82 -94q-139 -160 -139 -267q0 -102 66.5 -172.5t193.5 -70.5q70 0 139 37q55 100 84 161l10 7l37 -9l6 -8q-35 -92 -76 -231q-47 -35 -122.5 -57.5t-137.5 -22.5q-141 0 -247.5 91t-106.5 243q0 68 36 134t72.5 107 t127.5 129q117 115 143.5 152t26.5 76q0 37 -33 69v13zM641 834q0 -43 -31.5 -76t-74.5 -33t-75 33t-32 76t32 73.5t75 30.5q41 0 73.5 -30.5t32.5 -73.5z" />
<glyph unicode="&#xc0;" horiz-adv-x="1441" d="M297 451l295 706q94 231 108 270h56l438 -1091q72 -178 108.5 -229.5t92.5 -51.5h63l6 -6v-49l-6 -6q-221 6 -231 6q-14 0 -291 -6l-6 6v49l6 6h51q117 0 117 47q0 27 -78 224l-55 143q-197 4 -295 4q-90 0 -283 -4l-61 -158q-66 -168 -66 -198q0 -57 123 -58h55l7 -6 v-49l-7 -6q-240 6 -249 6q-14 0 -211 -6l-7 6v47l7 8q43 0 62.5 1t47 17.5t40.5 32t42 70.5t51 108zM946 545l-258 657l-266 -657q176 -4 254 -4q90 0 270 4zM801 1499l-332 207q-49 31 -49 70q0 29 19.5 49t52 20t79.5 -47l299 -299h-69z" />
<glyph unicode="&#xc1;" horiz-adv-x="1441" d="M297 451l295 706q94 231 108 270h56l438 -1091q72 -178 108.5 -229.5t92.5 -51.5h63l6 -6v-49l-6 -6q-221 6 -231 6q-14 0 -291 -6l-6 6v49l6 6h51q117 0 117 47q0 27 -78 224l-55 143q-197 4 -295 4q-90 0 -283 -4l-61 -158q-66 -168 -66 -198q0 -57 123 -58h55l7 -6 v-49l-7 -6q-240 6 -249 6q-14 0 -211 -6l-7 6v47l7 8q43 0 62.5 1t47 17.5t40.5 32t42 70.5t51 108zM946 545l-258 657l-266 -657q176 -4 254 -4q90 0 270 4zM573 1499l299 299q47 47 80 47t52.5 -20.5t19.5 -48.5q0 -39 -49 -70l-332 -207h-70z" />
<glyph unicode="&#xc2;" horiz-adv-x="1441" d="M297 451l295 706q94 231 108 270h56l438 -1091q72 -178 108.5 -229.5t92.5 -51.5h63l6 -6v-49l-6 -6q-221 6 -231 6q-14 0 -291 -6l-6 6v49l6 6h51q117 0 117 47q0 27 -78 224l-55 143q-197 4 -295 4q-90 0 -283 -4l-61 -158q-66 -168 -66 -198q0 -57 123 -58h55l7 -6 v-49l-7 -6q-240 6 -249 6q-14 0 -211 -6l-7 6v47l7 8q43 0 62.5 1t47 17.5t40.5 32t42 70.5t51 108zM946 545l-258 657l-266 -657q176 -4 254 -4q90 0 270 4zM416 1499l248 342h112l252 -342h-67l-240 215l-238 -215h-67z" />
<glyph unicode="&#xc3;" horiz-adv-x="1441" d="M297 451l295 706q94 231 108 270h56l438 -1091q72 -178 108.5 -229.5t92.5 -51.5h63l6 -6v-49l-6 -6q-221 6 -231 6q-14 0 -291 -6l-6 6v49l6 6h51q117 0 117 47q0 27 -78 224l-55 143q-197 4 -295 4q-90 0 -283 -4l-61 -158q-66 -168 -66 -198q0 -57 123 -58h55l7 -6 v-49l-7 -6q-240 6 -249 6q-14 0 -211 -6l-7 6v47l7 8q43 0 62.5 1t47 17.5t40.5 32t42 70.5t51 108zM946 545l-258 657l-266 -657q176 -4 254 -4q90 0 270 4zM997 1763h54q-39 -209 -193 -209q-47 0 -166 50q-104 43 -143 43q-74 0 -103 -99h-53q39 209 193 209 q47 0 166 -49q104 -43 143 -43q73 0 102 98z" />
<glyph unicode="&#xc4;" horiz-adv-x="1441" d="M297 451l295 706q94 231 108 270h56l438 -1091q72 -178 108.5 -229.5t92.5 -51.5h63l6 -6v-49l-6 -6q-221 6 -231 6q-14 0 -291 -6l-6 6v49l6 6h51q117 0 117 47q0 27 -78 224l-55 143q-197 4 -295 4q-90 0 -283 -4l-61 -158q-66 -168 -66 -198q0 -57 123 -58h55l7 -6 v-49l-7 -6q-240 6 -249 6q-14 0 -211 -6l-7 6v47l7 8q43 0 62.5 1t47 17.5t40.5 32t42 70.5t51 108zM946 545l-258 657l-266 -657q176 -4 254 -4q90 0 270 4zM827 1632q0 37 28 65.5t67 28.5q37 0 65.5 -28.5t28.5 -65.5t-29 -65.5t-65 -28.5q-39 0 -67 28.5t-28 65.5z M428 1632q0 37 27.5 65.5t64.5 28.5t66.5 -28.5t29.5 -65.5t-29.5 -65.5t-66.5 -28.5t-64.5 28.5t-27.5 65.5z" />
<glyph unicode="&#xc5;" horiz-adv-x="1441" d="M297 451l295 706q94 231 108 270h56l438 -1091q72 -178 108.5 -229.5t92.5 -51.5h63l6 -6v-49l-6 -6q-221 6 -231 6q-14 0 -291 -6l-6 6v49l6 6h51q117 0 117 47q0 27 -78 224l-55 143q-197 4 -295 4q-90 0 -283 -4l-61 -158q-66 -168 -66 -198q0 -57 123 -58h55l7 -6 v-49l-7 -6q-240 6 -249 6q-14 0 -211 -6l-7 6v47l7 8q43 0 62.5 1t47 17.5t40.5 32t42 70.5t51 108zM946 545l-258 657l-266 -657q176 -4 254 -4q90 0 270 4zM524 1681.5q0 79.5 59.5 139t139.5 59.5t139.5 -59.5t59.5 -139t-59.5 -139t-139.5 -59.5t-139.5 59.5t-59.5 139z M586 1681.5q0 -55.5 40 -96.5t97 -41t97 40t40 97.5t-40 97.5t-97 40t-97 -41t-40 -96.5z" />
<glyph unicode="&#xc6;" horiz-adv-x="1896" d="M1110 680v-350q0 -82 4 -262h281q178 0 323 36q33 113 49 230l7 6h45l6 -6q-20 -195 -21 -334l-6 -6q-461 6 -627 6q-207 0 -299 -6l-6 6v41l6 6l58 31q12 4 12 18q14 160 14 371v35q-96 8 -260 8q-158 0 -274 -8l-76 -137q-4 -8 -23 -41l-37 -63l-36 -63 q-18 -34 -29.5 -60.5t-11.5 -37.5q0 -41 63 -43l101 -4l6 -6v-47l-6 -6q-221 6 -236 6q-12 0 -190 -6l-6 6v47l6 6l41 4q41 4 83 48.5t134 195.5l375 606q236 379 235 414q0 33 -51 33l-152 4l-6 6v47l6 6q369 -6 381 -6q246 0 793 6l6 -6q-29 -176 -29 -309l-6 -6h-49l-6 6 q0 57 -14 198q-152 43 -336 43q-139 0 -236 -6q-6 -109 -6 -190v-381q70 -6 188 -6q227 0 254 16q16 10 21.5 35t15.5 125l6 6h43l7 -6q-6 -166 -7 -221q0 -145 7 -219l-7 -7h-43l-6 7q-10 111 -17 136t-34 36q-49 18 -221 18q-109 0 -207 -6zM956 578v323q0 66 -1 137.5 t-3 160.5t-2 138h-37l-448 -759h491z" />
<glyph unicode="&#xc7;" horiz-adv-x="1402" d="M1370 174l-49 -100q-55 -31 -94 -48.5t-128 -37t-194 -19.5h-12l-49 -110q27 10 76 10q68 0 111.5 -38t43.5 -101q0 -70 -59.5 -121t-179.5 -51q-106 0 -168 28l-4 11l20 45l10 6q63 -23 111 -23q61 0 96 24.5t35 65.5q0 80 -96 80q-29 0 -62 -14l-33 10l80 182 q-324 23 -522.5 221.5t-198.5 491.5q0 373 254 580q100 82 235.5 129t264.5 47q152 0 314.5 -38t177.5 -40l6 -6q-41 -117 -53 -291l-7 -6h-43l-6 6q0 72 -8 180q-145 121 -385 121q-111 0 -211 -37t-183 -110.5t-132 -199.5t-49 -288q0 -117 41.5 -234.5t119.5 -218 t208 -163t290 -62.5q104 0 194.5 25.5t127 48.5l92.5 61z" />
<glyph unicode="&#xc8;" horiz-adv-x="1175" d="M240 467v717q0 119 -15 139q-16 27 -108 31l-74 4l-6 6v47l6 6q301 -6 303 -6q106 0 227 1t268.5 3t227.5 2l6 -6q-29 -176 -28 -309l-7 -6h-49l-6 6q0 57 -14 198q-152 43 -336 43q-139 0 -236 -6q-6 -109 -6 -190v-381q70 -6 189 -6q227 0 254 16q16 10 21 35t15 125 l7 6h43l6 -6q-6 -166 -6 -221q0 -145 6 -219l-6 -7h-43l-7 7q-10 111 -17 136t-34 36q-49 18 -221 18q-109 0 -207 -6v-350q0 -82 4 -262h281q178 0 323 36q33 113 50 230l6 6h45l6 -6q-20 -195 -21 -334l-6 -6q-461 6 -626 6q-207 0 -299 -6l-6 6v41l6 6l57 31q12 4 12 18 q15 160 15 371zM668 1499l-332 207q-49 31 -49 70q0 29 19.5 49t52 20t79.5 -47l299 -299h-69z" />
<glyph unicode="&#xc9;" horiz-adv-x="1175" d="M240 467v717q0 119 -15 139q-16 27 -108 31l-74 4l-6 6v47l6 6q301 -6 303 -6q106 0 227 1t268.5 3t227.5 2l6 -6q-29 -176 -28 -309l-7 -6h-49l-6 6q0 57 -14 198q-152 43 -336 43q-139 0 -236 -6q-6 -109 -6 -190v-381q70 -6 189 -6q227 0 254 16q16 10 21 35t15 125 l7 6h43l6 -6q-6 -166 -6 -221q0 -145 6 -219l-6 -7h-43l-7 7q-10 111 -17 136t-34 36q-49 18 -221 18q-109 0 -207 -6v-350q0 -82 4 -262h281q178 0 323 36q33 113 50 230l6 6h45l6 -6q-20 -195 -21 -334l-6 -6q-461 6 -626 6q-207 0 -299 -6l-6 6v41l6 6l57 31q12 4 12 18 q15 160 15 371zM440 1499l299 299q47 47 80 47t52.5 -20.5t19.5 -48.5q0 -39 -49 -70l-332 -207h-70z" />
<glyph unicode="&#xca;" horiz-adv-x="1175" d="M240 467v717q0 119 -15 139q-16 27 -108 31l-74 4l-6 6v47l6 6q301 -6 303 -6q106 0 227 1t268.5 3t227.5 2l6 -6q-29 -176 -28 -309l-7 -6h-49l-6 6q0 57 -14 198q-152 43 -336 43q-139 0 -236 -6q-6 -109 -6 -190v-381q70 -6 189 -6q227 0 254 16q16 10 21 35t15 125 l7 6h43l6 -6q-6 -166 -6 -221q0 -145 6 -219l-6 -7h-43l-7 7q-10 111 -17 136t-34 36q-49 18 -221 18q-109 0 -207 -6v-350q0 -82 4 -262h281q178 0 323 36q33 113 50 230l6 6h45l6 -6q-20 -195 -21 -334l-6 -6q-461 6 -626 6q-207 0 -299 -6l-6 6v41l6 6l57 31q12 4 12 18 q15 160 15 371zM283 1499l247 342h113l252 -342h-68l-239 215l-238 -215h-67z" />
<glyph unicode="&#xcb;" horiz-adv-x="1175" d="M240 467v717q0 119 -15 139q-16 27 -108 31l-74 4l-6 6v47l6 6q301 -6 303 -6q106 0 227 1t268.5 3t227.5 2l6 -6q-29 -176 -28 -309l-7 -6h-49l-6 6q0 57 -14 198q-152 43 -336 43q-139 0 -236 -6q-6 -109 -6 -190v-381q70 -6 189 -6q227 0 254 16q16 10 21 35t15 125 l7 6h43l6 -6q-6 -166 -6 -221q0 -145 6 -219l-6 -7h-43l-7 7q-10 111 -17 136t-34 36q-49 18 -221 18q-109 0 -207 -6v-350q0 -82 4 -262h281q178 0 323 36q33 113 50 230l6 6h45l6 -6q-20 -195 -21 -334l-6 -6q-461 6 -626 6q-207 0 -299 -6l-6 6v41l6 6l57 31q12 4 12 18 q15 160 15 371zM694 1632q0 37 28 65.5t66 28.5q37 0 66 -28.5t29 -65.5t-29 -65.5t-66 -28.5q-39 0 -66.5 28.5t-27.5 65.5zM295 1632q0 37 27.5 65.5t64.5 28.5t66.5 -28.5t29.5 -65.5t-29.5 -65.5t-66.5 -28.5t-64.5 28.5t-27.5 65.5z" />
<glyph unicode="&#xcc;" horiz-adv-x="645" d="M246 227v957q0 119 -15 139q-16 27 -108 31l-74 4l-6 6v47l6 6q258 -6 275 -6q14 0 272 6l6 -6v-47l-6 -6l-74 -4q-92 -4 -108 -31q-14 -20 -15 -139v-957q0 -119 15 -139q16 -27 108 -31l74 -4l6 -6v-47l-6 -6q-258 6 -272 6q-16 0 -275 -6l-6 6v47l6 6l74 4 q92 4 108 31q15 20 15 139zM401 1499l-331 207q-49 31 -50 70q0 29 19.5 49t52.5 20t80 -47l299 -299h-70z" />
<glyph unicode="&#xcd;" horiz-adv-x="645" d="M246 227v957q0 119 -15 139q-16 27 -108 31l-74 4l-6 6v47l6 6q258 -6 275 -6q14 0 272 6l6 -6v-47l-6 -6l-74 -4q-92 -4 -108 -31q-14 -20 -15 -139v-957q0 -119 15 -139q16 -27 108 -31l74 -4l6 -6v-47l-6 -6q-258 6 -272 6q-16 0 -275 -6l-6 6v47l6 6l74 4 q92 4 108 31q15 20 15 139zM174 1499l299 299q47 47 80 47t52.5 -20.5t19.5 -48.5q0 -39 -50 -70l-331 -207h-70z" />
<glyph unicode="&#xce;" horiz-adv-x="645" d="M246 227v957q0 119 -15 139q-16 27 -108 31l-74 4l-6 6v47l6 6q258 -6 275 -6q14 0 272 6l6 -6v-47l-6 -6l-74 -4q-92 -4 -108 -31q-14 -20 -15 -139v-957q0 -119 15 -139q16 -27 108 -31l74 -4l6 -6v-47l-6 -6q-258 6 -272 6q-16 0 -275 -6l-6 6v47l6 6l74 4 q92 4 108 31q15 20 15 139zM16 1499l248 342h113l252 -342h-68l-239 215l-238 -215h-68z" />
<glyph unicode="&#xcf;" horiz-adv-x="645" d="M246 227v957q0 119 -15 139q-16 27 -108 31l-74 4l-6 6v47l6 6q258 -6 275 -6q14 0 272 6l6 -6v-47l-6 -6l-74 -4q-92 -4 -108 -31q-14 -20 -15 -139v-957q0 -119 15 -139q16 -27 108 -31l74 -4l6 -6v-47l-6 -6q-258 6 -272 6q-16 0 -275 -6l-6 6v47l6 6l74 4 q92 4 108 31q15 20 15 139zM428 1632q0 37 27.5 65.5t66.5 28.5q37 0 65.5 -28.5t28.5 -65.5t-28.5 -65.5t-65.5 -28.5q-39 0 -66.5 28.5t-27.5 65.5zM29 1632q0 37 27.5 65.5t64.5 28.5t66.5 -28.5t29.5 -65.5t-29.5 -65.5t-66.5 -28.5t-64.5 28.5t-27.5 65.5z" />
<glyph unicode="&#xd0;" horiz-adv-x="1554" d="M240 467v246h-197l-6 6v55l6 6h197v404q0 119 -15 139q-16 27 -108 31l-74 4l-6 6v47l6 6q258 -6 274 -6q84 0 217.5 3t170.5 3q104 0 201.5 -16.5t198.5 -60.5t176 -114.5t122 -188t47 -271.5q0 -104 -28.5 -210.5t-93 -208t-158 -179.5t-231.5 -126t-304 -48 q-53 0 -160.5 3t-159.5 3l-159 -6l-6 6v41l6 6l57 31q12 4 12 18q15 160 15 371zM393 1047v-267h436l7 -6v-55l-7 -6h-436v-408q0 -164 6 -223q72 -14 236 -14q287 0 461 180t174 485q0 158 -48 275.5t-117 181t-166 101.5t-173 48.5t-160 10.5q-100 0 -200 -15 q-13 -87 -13 -288z" />
<glyph unicode="&#xd1;" horiz-adv-x="1630" d="M238 618v560q0 109 -18.5 140.5t-78.5 35.5l-98 4l-6 6v47l6 6q16 0 45 -2t52.5 -3t43.5 -1l166 6q147 -201 444 -572l525 -640v588q0 338 -14 473q-4 47 -17 59q-20 25 -92 29l-72 4l-6 6v47l6 6q147 -6 231.5 -6t231.5 6l6 -6v-47l-6 -6l-71 -4q-72 -4 -93 -29 q-12 -12 -16 -59q-14 -135 -14 -473v-615q0 -102 8 -217q-53 20 -109 27l-977 1216h-4v-586q0 -336 15 -473q4 -47 16 -59q20 -25 92 -29l72 -4l6 -6v-47l-6 -6q-147 6 -231.5 6t-231.5 -6l-6 6v47l6 6l72 4q72 4 92 29q12 12 16 59q15 137 15 473zM1092 1763h53 q-39 -209 -193 -209q-47 0 -166 50q-104 43 -143 43q-74 0 -102 -99h-54q39 209 193 209q47 0 166 -49q104 -43 143 -43q74 0 103 98z" />
<glyph unicode="&#xd2;" horiz-adv-x="1669" d="M260 784q0 -199 59.5 -363.5t193.5 -274t325 -109.5q78 0 153.5 19.5t151.5 67.5t133 118.5t92 183.5t35 254q0 336 -165 518t-425 182q-231 0 -392 -154.5t-161 -441.5zM92 686q0 193 61.5 341.5t167 236.5t234.5 133t272 45q350 0 550 -188.5t200 -520.5 q0 -143 -51 -278.5t-146.5 -244t-246 -175t-332.5 -66.5q-158 0 -284 48.5t-203.5 122t-129 172t-72 190.5t-20.5 184zM913 1499l-331 207q-49 31 -50 70q0 29 19.5 49t52.5 20t80 -47l299 -299h-70z" />
<glyph unicode="&#xd3;" horiz-adv-x="1669" d="M260 784q0 -199 59.5 -363.5t193.5 -274t325 -109.5q78 0 153.5 19.5t151.5 67.5t133 118.5t92 183.5t35 254q0 336 -165 518t-425 182q-231 0 -392 -154.5t-161 -441.5zM92 686q0 193 61.5 341.5t167 236.5t234.5 133t272 45q350 0 550 -188.5t200 -520.5 q0 -143 -51 -278.5t-146.5 -244t-246 -175t-332.5 -66.5q-158 0 -284 48.5t-203.5 122t-129 172t-72 190.5t-20.5 184zM686 1499l299 299q47 47 80 47t52.5 -20.5t19.5 -48.5q0 -39 -50 -70l-331 -207h-70z" />
<glyph unicode="&#xd4;" horiz-adv-x="1669" d="M260 784q0 -199 59.5 -363.5t193.5 -274t325 -109.5q78 0 153.5 19.5t151.5 67.5t133 118.5t92 183.5t35 254q0 336 -165 518t-425 182q-231 0 -392 -154.5t-161 -441.5zM92 686q0 193 61.5 341.5t167 236.5t234.5 133t272 45q350 0 550 -188.5t200 -520.5 q0 -143 -51 -278.5t-146.5 -244t-246 -175t-332.5 -66.5q-158 0 -284 48.5t-203.5 122t-129 172t-72 190.5t-20.5 184zM528 1499l248 342h113l252 -342h-68l-239 215l-238 -215h-68z" />
<glyph unicode="&#xd5;" horiz-adv-x="1669" d="M260 784q0 -199 59.5 -363.5t193.5 -274t325 -109.5q78 0 153.5 19.5t151.5 67.5t133 118.5t92 183.5t35 254q0 336 -165 518t-425 182q-231 0 -392 -154.5t-161 -441.5zM92 686q0 193 61.5 341.5t167 236.5t234.5 133t272 45q350 0 550 -188.5t200 -520.5 q0 -143 -51 -278.5t-146.5 -244t-246 -175t-332.5 -66.5q-158 0 -284 48.5t-203.5 122t-129 172t-72 190.5t-20.5 184zM1110 1763h53q-39 -209 -192 -209q-47 0 -166 50q-104 43 -143 43q-74 0 -103 -99h-53q39 209 192 209q47 0 166 -49q104 -43 144 -43q73 0 102 98z" />
<glyph unicode="&#xd6;" horiz-adv-x="1669" d="M260 784q0 -199 59.5 -363.5t193.5 -274t325 -109.5q78 0 153.5 19.5t151.5 67.5t133 118.5t92 183.5t35 254q0 336 -165 518t-425 182q-231 0 -392 -154.5t-161 -441.5zM92 686q0 193 61.5 341.5t167 236.5t234.5 133t272 45q350 0 550 -188.5t200 -520.5 q0 -143 -51 -278.5t-146.5 -244t-246 -175t-332.5 -66.5q-158 0 -284 48.5t-203.5 122t-129 172t-72 190.5t-20.5 184zM940 1632q0 37 27.5 65.5t66.5 28.5q37 0 65.5 -28.5t28.5 -65.5t-28.5 -65.5t-65.5 -28.5q-39 0 -66.5 28.5t-27.5 65.5zM541 1632q0 37 27.5 65.5 t64.5 28.5t66.5 -28.5t29.5 -65.5t-29.5 -65.5t-66.5 -28.5t-64.5 28.5t-27.5 65.5z" />
<glyph unicode="&#xd7;" horiz-adv-x="1228" d="M541 518l-389 389l73 74l387 -391l392 391l73 -74l-389 -389l389 -389l-73 -74l-392 391l-387 -391l-73 74z" />
<glyph unicode="&#xd8;" horiz-adv-x="1669" d="M395 274l842 924q-160 182 -424 182q-231 0 -392 -154.5t-161 -441.5q0 -305 135 -510zM125 -23l168 185q-102 104 -151.5 245.5t-49.5 278.5q0 193 61.5 341.5t167 236.5t234.5 133t272 45q309 0 500 -146l168 185h6l43 -41v-6l-166 -183q199 -186 199 -518 q0 -143 -51 -278.5t-146.5 -244t-246 -175t-332.5 -66.5q-279 0 -457 148l-170 -187h-6l-43 41v6zM1280 1143l-842 -924q150 -182 400 -182q78 0 153.5 19.5t151.5 67.5t133 118.5t92 183.5t35 254q0 285 -123 463z" />
<glyph unicode="&#xd9;" horiz-adv-x="1517" d="M215 401v783q0 119 -14 139q-16 27 -109 31l-74 4l-6 6v47l6 6q258 -6 277 -6q12 0 270 6l6 -6v-47l-6 -6l-73 -4q-92 -4 -109 -31q-14 -20 -14 -139v-729q0 -393 403 -394q311 0 412 205q47 94 47 338v189q0 338 -14 473q-4 47 -17 59q-20 25 -92 29l-72 4l-6 6v47l6 6 q147 -6 231.5 -6t231.5 6l6 -6v-47l-6 -6l-72 -4q-72 -4 -92 -29q-12 -12 -16 -59q-14 -135 -14 -473v-175q0 -166 -8.5 -242.5t-36.5 -137.5q-121 -268 -512 -269q-160 0 -269.5 35t-165 98.5t-77 135t-21.5 163.5zM854 1499l-332 207q-49 31 -49 70q0 29 19.5 49t52.5 20 t80 -47l299 -299h-70z" />
<glyph unicode="&#xda;" horiz-adv-x="1517" d="M215 401v783q0 119 -14 139q-16 27 -109 31l-74 4l-6 6v47l6 6q258 -6 277 -6q12 0 270 6l6 -6v-47l-6 -6l-73 -4q-92 -4 -109 -31q-14 -20 -14 -139v-729q0 -393 403 -394q311 0 412 205q47 94 47 338v189q0 338 -14 473q-4 47 -17 59q-20 25 -92 29l-72 4l-6 6v47l6 6 q147 -6 231.5 -6t231.5 6l6 -6v-47l-6 -6l-72 -4q-72 -4 -92 -29q-12 -12 -16 -59q-14 -135 -14 -473v-175q0 -166 -8.5 -242.5t-36.5 -137.5q-121 -268 -512 -269q-160 0 -269.5 35t-165 98.5t-77 135t-21.5 163.5zM627 1499l299 299q47 47 79.5 47t52 -20.5t19.5 -48.5 q0 -39 -49 -70l-332 -207h-69z" />
<glyph unicode="&#xdb;" horiz-adv-x="1517" d="M215 401v783q0 119 -14 139q-16 27 -109 31l-74 4l-6 6v47l6 6q258 -6 277 -6q12 0 270 6l6 -6v-47l-6 -6l-73 -4q-92 -4 -109 -31q-14 -20 -14 -139v-729q0 -393 403 -394q311 0 412 205q47 94 47 338v189q0 338 -14 473q-4 47 -17 59q-20 25 -92 29l-72 4l-6 6v47l6 6 q147 -6 231.5 -6t231.5 6l6 -6v-47l-6 -6l-72 -4q-72 -4 -92 -29q-12 -12 -16 -59q-14 -135 -14 -473v-175q0 -166 -8.5 -242.5t-36.5 -137.5q-121 -268 -512 -269q-160 0 -269.5 35t-165 98.5t-77 135t-21.5 163.5zM469 1499l248 342h112l252 -342h-67l-240 215l-237 -215 h-68z" />
<glyph unicode="&#xdc;" horiz-adv-x="1517" d="M215 401v783q0 119 -14 139q-16 27 -109 31l-74 4l-6 6v47l6 6q258 -6 277 -6q12 0 270 6l6 -6v-47l-6 -6l-73 -4q-92 -4 -109 -31q-14 -20 -14 -139v-729q0 -393 403 -394q311 0 412 205q47 94 47 338v189q0 338 -14 473q-4 47 -17 59q-20 25 -92 29l-72 4l-6 6v47l6 6 q147 -6 231.5 -6t231.5 6l6 -6v-47l-6 -6l-72 -4q-72 -4 -92 -29q-12 -12 -16 -59q-14 -135 -14 -473v-175q0 -166 -8.5 -242.5t-36.5 -137.5q-121 -268 -512 -269q-160 0 -269.5 35t-165 98.5t-77 135t-21.5 163.5zM881 1632q0 37 27.5 65.5t66.5 28.5q37 0 65.5 -28.5 t28.5 -65.5t-28.5 -65.5t-65.5 -28.5q-39 0 -66.5 28.5t-27.5 65.5zM481 1632q0 37 28 65.5t64.5 28.5t66.5 -28.5t30 -65.5t-30 -65.5t-66.5 -28.5t-64.5 28.5t-28 65.5z" />
<glyph unicode="&#xdd;" horiz-adv-x="1214" d="M559 227v365q-256 442 -330 545q-88 125 -135 161.5t-121 47.5l-6 6v34l6 7l193 49q23 -12 53 -33q115 -86 451 -733l180 293l260 448q8 0 21.5 -2t23.5 -3t20.5 -1t20.5 1t23.5 3t21.5 2l6 -6v-25l-6 -6q-100 -100 -328 -446q-133 -201 -180 -297q-20 -41 -20 -125v-285 q0 -119 14 -139q16 -27 109 -31l73 -4l6 -6v-47l-6 -6q-258 6 -272 6q-16 0 -275 -6l-6 6v47l6 6l74 4q92 4 109 31q14 20 14 139zM500 1499l299 299q47 47 79.5 47t52 -20.5t19.5 -48.5q0 -39 -49 -70l-332 -207h-69z" />
<glyph unicode="&#xde;" horiz-adv-x="1214" d="M252 227v957q0 119 -14 139q-16 27 -109 31l-74 4l-6 6v47l6 6q240 -6 271 -6q37 0 276 6l6 -6v-47l-6 -6l-74 -4q-92 -4 -108 -31q-14 -20 -14 -139v-39q18 0 108 3t148 3q244 0 375.5 -76t131.5 -260q0 -63 -28.5 -131t-86 -132.5t-158.5 -105t-228 -40.5 q-74 0 -131 20l-19 57l6 6q61 -23 125 -22q184 0 268 95t84 224q0 147 -94 222t-256 75q-143 0 -237 -14q-8 -72 -8 -244v-598q0 -119 14 -139q16 -27 108 -31l74 -4l6 -6v-47l-6 -6q-258 6 -272 6q-16 0 -275 -6l-6 6v47l6 6l74 4q92 4 109 31q14 20 14 139z" />
<glyph unicode="&#xdf;" horiz-adv-x="1099" d="M37 0v35l6 6l47 4q70 6 88 27q14 16 15 129v604h-39q-33 0 -99 -8l-6 6v26l6 7l138 55v143q0 74 18 125q35 96 165 213t275 117q152 0 231 -79t79 -230q0 -82 -76 -371l-19 -8q-61 39 -129 39q-47 0 -81.5 -33t-34.5 -78q0 -43 39.5 -75.5t144.5 -92.5q115 -66 160 -116 t45 -132q0 -133 -121 -239q-61 -55 -109.5 -77t-120.5 -22q-100 0 -174 50v-25l-6 -6q-57 2 -211 6q-16 0 -225 -6zM326 1036v-835q0 -113 14 -129q18 -20 88 -27l51 -4q23 90 35 176l6 6h39l6 -6l4 -100q59 -55 148 -56q76 0 132 43t56 125q0 68 -39 108t-159 109 q-119 68 -158 104t-39 89q0 61 72.5 153.5t124.5 122.5q49 29 149 29q18 82 18 152q0 125 -71.5 213t-227.5 88q-72 0 -122 -30t-74.5 -65.5t-36.5 -95t-14 -91.5t-2 -79z" />
<glyph unicode="&#xe0;" d="M664 233v297q-27 -8 -125.5 -30.5t-147.5 -40.5q-78 -29 -123 -74t-45 -123t41 -130t135 -52q138 -1 265 153zM797 541v-383q0 -68 18.5 -87.5t85.5 -25.5l45 -4l6 -6v-35l-6 -6q-129 6 -143 6q-59 0 -133 -6l-13 12q6 76 7 156q-70 -70 -172 -144q-59 -43 -142 -43 q-274 0 -274 263q0 102 55 161.5t160 94.5q66 23 198 48t175 38v41q0 131 -55.5 188t-176.5 57q-90 0 -137 -35q-27 -18 -39 -51l-39 -96l-6 -6l-41 12l-6 6l-4 131l6 9q2 2 25 17l32 20q8 5 33 19.5t40 20.5l42 17q27 10 50.5 15t53 9t60.5 4q74 0 149.5 -32.5 t112.5 -106.5q33 -67 33 -278zM571 1139l-331 207q-49 31 -50 69q0 29 19.5 49.5t52.5 20.5t80 -47l299 -299h-70z" />
<glyph unicode="&#xe1;" d="M664 233v297q-27 -8 -125.5 -30.5t-147.5 -40.5q-78 -29 -123 -74t-45 -123t41 -130t135 -52q138 -1 265 153zM797 541v-383q0 -68 18.5 -87.5t85.5 -25.5l45 -4l6 -6v-35l-6 -6q-129 6 -143 6q-59 0 -133 -6l-13 12q6 76 7 156q-70 -70 -172 -144q-59 -43 -142 -43 q-274 0 -274 263q0 102 55 161.5t160 94.5q66 23 198 48t175 38v41q0 131 -55.5 188t-176.5 57q-90 0 -137 -35q-27 -18 -39 -51l-39 -96l-6 -6l-41 12l-6 6l-4 131l6 9q2 2 25 17l32 20q8 5 33 19.5t40 20.5l42 17q27 10 50.5 15t53 9t60.5 4q74 0 149.5 -32.5 t112.5 -106.5q33 -67 33 -278zM344 1139l299 299q47 47 80 47t52.5 -20.5t19.5 -49.5q0 -39 -50 -69l-331 -207h-70z" />
<glyph unicode="&#xe2;" d="M664 233v297q-27 -8 -125.5 -30.5t-147.5 -40.5q-78 -29 -123 -74t-45 -123t41 -130t135 -52q138 -1 265 153zM797 541v-383q0 -68 18.5 -87.5t85.5 -25.5l45 -4l6 -6v-35l-6 -6q-129 6 -143 6q-59 0 -133 -6l-13 12q6 76 7 156q-70 -70 -172 -144q-59 -43 -142 -43 q-274 0 -274 263q0 102 55 161.5t160 94.5q66 23 198 48t175 38v41q0 131 -55.5 188t-176.5 57q-90 0 -137 -35q-27 -18 -39 -51l-39 -96l-6 -6l-41 12l-6 6l-4 131l6 9q2 2 25 17l32 20q8 5 33 19.5t40 20.5l42 17q27 10 50.5 15t53 9t60.5 4q74 0 149.5 -32.5 t112.5 -106.5q33 -67 33 -278zM186 1139l248 342h113l252 -342h-68l-239 215l-238 -215h-68z" />
<glyph unicode="&#xe3;" d="M664 233v297q-27 -8 -125.5 -30.5t-147.5 -40.5q-78 -29 -123 -74t-45 -123t41 -130t135 -52q138 -1 265 153zM797 541v-383q0 -68 18.5 -87.5t85.5 -25.5l45 -4l6 -6v-35l-6 -6q-129 6 -143 6q-59 0 -133 -6l-13 12q6 76 7 156q-70 -70 -172 -144q-59 -43 -142 -43 q-274 0 -274 263q0 102 55 161.5t160 94.5q66 23 198 48t175 38v41q0 131 -55.5 188t-176.5 57q-90 0 -137 -35q-27 -18 -39 -51l-39 -96l-6 -6l-41 12l-6 6l-4 131l6 9q2 2 25 17l32 20q8 5 33 19.5t40 20.5l42 17q27 10 50.5 15t53 9t60.5 4q74 0 149.5 -32.5 t112.5 -106.5q33 -67 33 -278zM768 1403h53q-39 -209 -192 -209q-47 0 -166 49q-104 43 -144 43q-74 0 -102 -98h-53q39 209 192 209q47 0 166 -49q104 -43 144 -43q73 0 102 98z" />
<glyph unicode="&#xe4;" d="M664 233v297q-27 -8 -125.5 -30.5t-147.5 -40.5q-78 -29 -123 -74t-45 -123t41 -130t135 -52q138 -1 265 153zM797 541v-383q0 -68 18.5 -87.5t85.5 -25.5l45 -4l6 -6v-35l-6 -6q-129 6 -143 6q-59 0 -133 -6l-13 12q6 76 7 156q-70 -70 -172 -144q-59 -43 -142 -43 q-274 0 -274 263q0 102 55 161.5t160 94.5q66 23 198 48t175 38v41q0 131 -55.5 188t-176.5 57q-90 0 -137 -35q-27 -18 -39 -51l-39 -96l-6 -6l-41 12l-6 6l-4 131l6 9q2 2 25 17l32 20q8 5 33 19.5t40 20.5l42 17q27 10 50.5 15t53 9t60.5 4q74 0 149.5 -32.5 t112.5 -106.5q33 -67 33 -278zM598 1272q0 37 27.5 65.5t66.5 28.5q37 0 65.5 -28.5t28.5 -65.5t-28.5 -65.5t-65.5 -28.5q-39 0 -66.5 28.5t-27.5 65.5zM199 1272q0 37 27.5 65.5t64.5 28.5t66.5 -28.5t29.5 -65.5t-29.5 -65.5t-66.5 -28.5t-64.5 28.5t-27.5 65.5z" />
<glyph unicode="&#xe5;" d="M664 233v297q-27 -8 -125.5 -30.5t-147.5 -40.5q-78 -29 -123 -74t-45 -123t41 -130t135 -52q138 -1 265 153zM797 541v-383q0 -68 18.5 -87.5t85.5 -25.5l45 -4l6 -6v-35l-6 -6q-129 6 -143 6q-59 0 -133 -6l-13 12q6 76 7 156q-70 -70 -172 -144q-59 -43 -142 -43 q-274 0 -274 263q0 102 55 161.5t160 94.5q66 23 198 48t175 38v41q0 131 -55.5 188t-176.5 57q-90 0 -137 -35q-27 -18 -39 -51l-39 -96l-6 -6l-41 12l-6 6l-4 131l6 9q2 2 25 17l32 20q8 5 33 19.5t40 20.5l42 17q27 10 50.5 15t53 9t60.5 4q74 0 149.5 -32.5 t112.5 -106.5q33 -67 33 -278zM295 1290q0 80 59.5 139.5t139 59.5t139 -59.5t59.5 -139.5t-59.5 -139t-139 -59t-139 59t-59.5 139zM356 1290.5q0 -55.5 40 -96.5t97.5 -41t97.5 40t40 97.5t-40 97t-97.5 39.5t-97.5 -40.5t-40 -96z" />
<glyph unicode="&#xe6;" horiz-adv-x="1554" d="M1438 145l-41 -75q-152 -94 -328 -95q-217 0 -330 211q-4 -4 -50 -46l-88 -78q-42 -36 -62 -46q-68 -41 -191 -41q-131 0 -201.5 71t-70.5 187q0 158 138 227.5t460 102.5v58q0 121 -61.5 183t-180.5 62q-90 0 -137 -35q-27 -18 -39 -51l-39 -96l-6 -6l-41 12l-6 6 l-4 131l6 9q2 2 25 17l32 20q8 5 33 19.5t40 20.5l42 17q27 10 50.5 15t53 9t60.5 4q115 0 182.5 -52t87.5 -107q158 160 344 159q57 0 110.5 -16t110 -53t91 -116t34.5 -189q0 -25 -4 -66q-111 -20 -389 -20h-272q0 -190 90 -310t254 -120q133 0 280 94zM223 258 q0 -186 197 -186q37 0 70.5 8t70.5 33l52 34q15 10 57.5 48t44.5 41q-41 98 -41 253v19q-451 -25 -451 -250zM1075 891q-248 0 -278 -334q213 -4 299 -4q76 0 209 10q4 49 4 74q0 129 -75 191.5t-159 62.5z" />
<glyph unicode="&#xe7;" horiz-adv-x="872" d="M813 113l-37 -62q-98 -70 -256 -76l-53 -116q27 10 76 10q68 0 111.5 -38t43.5 -101q0 -70 -59 -121t-180 -51q-106 0 -168 28l-4 11l20 45l10 6q63 -23 111 -23q61 0 96 24.5t35 65.5q0 80 -96 80q-29 0 -62 -14l-32 10l82 186q-156 14 -263.5 131t-107.5 341 q0 186 67 284q53 80 178.5 152.5t249.5 72.5q117 0 224 -53l6 -6q-20 -88 -31 -250l-6 -6h-37l-6 6q0 98 -23 137q-14 25 -71.5 55.5t-128.5 30.5q-111 0 -197 -85t-86 -283q0 -170 89 -303t259 -133q104 0 234 61z" />
<glyph unicode="&#xe8;" d="M506 891q-248 0 -279 -334q213 -4 299 -4q76 0 209 10q4 49 4 74q0 129 -74.5 191.5t-158.5 62.5zM868 145l-41 -75q-152 -94 -327 -95q-63 0 -129 22.5t-134.5 74t-112.5 151t-44 234.5q0 80 20.5 174t61.5 139q49 57 157.5 122.5t227.5 65.5q57 0 110.5 -16t109.5 -53 t91 -116t35 -189q0 -25 -4 -66q-111 -20 -389 -20h-273q0 -190 90.5 -310t253.5 -120q133 0 281 94zM571 1139l-331 207q-49 31 -50 69q0 29 19.5 49.5t52.5 20.5t80 -47l299 -299h-70z" />
<glyph unicode="&#xe9;" d="M506 891q-248 0 -279 -334q213 -4 299 -4q76 0 209 10q4 49 4 74q0 129 -74.5 191.5t-158.5 62.5zM868 145l-41 -75q-152 -94 -327 -95q-63 0 -129 22.5t-134.5 74t-112.5 151t-44 234.5q0 80 20.5 174t61.5 139q49 57 157.5 122.5t227.5 65.5q57 0 110.5 -16t109.5 -53 t91 -116t35 -189q0 -25 -4 -66q-111 -20 -389 -20h-273q0 -190 90.5 -310t253.5 -120q133 0 281 94zM344 1139l299 299q47 47 80 47t52.5 -20.5t19.5 -49.5q0 -39 -50 -69l-331 -207h-70z" />
<glyph unicode="&#xea;" d="M506 891q-248 0 -279 -334q213 -4 299 -4q76 0 209 10q4 49 4 74q0 129 -74.5 191.5t-158.5 62.5zM868 145l-41 -75q-152 -94 -327 -95q-63 0 -129 22.5t-134.5 74t-112.5 151t-44 234.5q0 80 20.5 174t61.5 139q49 57 157.5 122.5t227.5 65.5q57 0 110.5 -16t109.5 -53 t91 -116t35 -189q0 -25 -4 -66q-111 -20 -389 -20h-273q0 -190 90.5 -310t253.5 -120q133 0 281 94zM186 1139l248 342h113l252 -342h-68l-239 215l-238 -215h-68z" />
<glyph unicode="&#xeb;" d="M506 891q-248 0 -279 -334q213 -4 299 -4q76 0 209 10q4 49 4 74q0 129 -74.5 191.5t-158.5 62.5zM868 145l-41 -75q-152 -94 -327 -95q-63 0 -129 22.5t-134.5 74t-112.5 151t-44 234.5q0 80 20.5 174t61.5 139q49 57 157.5 122.5t227.5 65.5q57 0 110.5 -16t109.5 -53 t91 -116t35 -189q0 -25 -4 -66q-111 -20 -389 -20h-273q0 -190 90.5 -310t253.5 -120q133 0 281 94zM598 1272q0 37 27.5 65.5t66.5 28.5q37 0 65.5 -28.5t28.5 -65.5t-28.5 -65.5t-65.5 -28.5q-39 0 -66.5 28.5t-27.5 65.5zM199 1272q0 37 27.5 65.5t64.5 28.5t66.5 -28.5 t29.5 -65.5t-29.5 -65.5t-66.5 -28.5t-64.5 28.5t-27.5 65.5z" />
<glyph unicode="&#xec;" horiz-adv-x="530" d="M199 201v493q0 100 -13 115q-14 18 -51 20l-94 5l-6 6v34l6 7q115 10 278 77l19 -12q-6 -57 -6 -252v-493q0 -113 14 -129q18 -20 88 -27l55 -4l7 -6v-35l-7 -6q-12 0 -97 3t-126 3q-31 0 -67.5 -1t-83.5 -3t-74 -2l-6 6v35l6 6l55 4q70 6 88 27q15 16 15 129zM344 1139 l-332 207q-49 31 -49 69q0 29 19.5 49.5t52.5 20.5t80 -47l299 -299h-70z" />
<glyph unicode="&#xed;" horiz-adv-x="530" d="M199 201v493q0 100 -13 115q-14 18 -51 20l-94 5l-6 6v34l6 7q115 10 278 77l19 -12q-6 -57 -6 -252v-493q0 -113 14 -129q18 -20 88 -27l55 -4l7 -6v-35l-7 -6q-12 0 -97 3t-126 3q-31 0 -67.5 -1t-83.5 -3t-74 -2l-6 6v35l6 6l55 4q70 6 88 27q15 16 15 129zM117 1139 l299 299q47 47 79.5 47t52 -20.5t19.5 -49.5q0 -39 -49 -69l-332 -207h-69z" />
<glyph unicode="&#xee;" horiz-adv-x="530" d="M199 201v493q0 100 -13 115q-14 18 -51 20l-94 5l-6 6v34l6 7q115 10 278 77l19 -12q-6 -57 -6 -252v-493q0 -113 14 -129q18 -20 88 -27l55 -4l7 -6v-35l-7 -6q-12 0 -97 3t-126 3q-31 0 -67.5 -1t-83.5 -3t-74 -2l-6 6v35l6 6l55 4q70 6 88 27q15 16 15 129zM-41 1139 l248 342h112l252 -342h-67l-240 215l-237 -215h-68z" />
<glyph unicode="&#xef;" horiz-adv-x="530" d="M199 201v493q0 100 -13 115q-14 18 -51 20l-94 5l-6 6v34l6 7q115 10 278 77l19 -12q-6 -57 -6 -252v-493q0 -113 14 -129q18 -20 88 -27l55 -4l7 -6v-35l-7 -6q-12 0 -97 3t-126 3q-31 0 -67.5 -1t-83.5 -3t-74 -2l-6 6v35l6 6l55 4q70 6 88 27q15 16 15 129zM371 1272 q0 37 27.5 65.5t66.5 28.5q37 0 65.5 -28.5t28.5 -65.5t-28.5 -65.5t-65.5 -28.5q-39 0 -66.5 28.5t-27.5 65.5zM-29 1272q0 37 28 65.5t64.5 28.5t66.5 -28.5t30 -65.5t-30 -65.5t-66.5 -28.5t-64.5 28.5t-28 65.5z" />
<glyph unicode="&#xf0;" horiz-adv-x="1099" d="M262 1126l277 138q-121 109 -248 159v7l49 59h6q162 -72 287 -178l266 131h6l41 -56v-6l-256 -127q330 -279 330 -700q0 -281 -136 -429.5t-337 -148.5q-102 0 -185 33t-134.5 84t-86.5 117.5t-48 129t-13 122.5q0 219 135 358t346 139q80 0 150.5 -29.5t105.5 -74.5l4 4 q-23 88 -91 191.5t-130 158.5l-291 -143h-6l-41 55v6zM233 494q0 -197 84 -327t230 -130q319 0 319 422q0 182 -80.5 310t-236.5 128q-316 0 -316 -403z" />
<glyph unicode="&#xf1;" horiz-adv-x="1175" d="M199 201v493q0 100 -13 115q-14 18 -51 20l-86 5l-6 6v34l6 7q109 12 270 77l13 -12v-168q35 25 92 75t78 75q74 31 160 30q92 0 156.5 -30.5t97 -83.5t47 -108.5t14.5 -117.5v-460q0 -68 18.5 -87.5t85.5 -25.5l45 -4l7 -6v-35l-7 -6q-129 6 -143 6q-51 0 -137 -6 l-12 12q10 137 10 479q0 72 -3 116t-17.5 97.5t-41 82t-76 48t-120.5 19.5q-59 0 -117.5 -30t-87.5 -58.5t-35 -42.5q-14 -33 -14 -219v-127q0 -246 14 -287q6 -18 26.5 -26.5t78.5 -12.5l49 -4l6 -6v-35l-6 -6q-215 6 -226 6q-16 0 -225 -6l-6 6v35l6 6l47 4q70 6 88 27 q15 16 15 129zM848 1403h53q-39 -209 -192 -209q-47 0 -166 49q-104 43 -144 43q-74 0 -102 -98h-53q39 209 192 209q47 0 166 -49q104 -43 143 -43q74 0 103 98z" />
<glyph unicode="&#xf2;" horiz-adv-x="1099" d="M80 461q0 219 135 358t346 139q205 0 332 -125.5t127 -355.5q0 -217 -140.5 -359.5t-332.5 -142.5q-102 0 -185 33t-134.5 84t-86.5 117.5t-48 129.5t-13 122zM547 37q319 0 319 422q0 186 -80.5 312t-248.5 126q-139 0 -221.5 -97.5t-82.5 -283.5q0 -219 83.5 -349 t230.5 -130zM629 1139l-332 207q-49 31 -49 69q0 29 19.5 49.5t52 20.5t79.5 -47l299 -299h-69z" />
<glyph unicode="&#xf3;" horiz-adv-x="1099" d="M80 461q0 219 135 358t346 139q205 0 332 -125.5t127 -355.5q0 -217 -140.5 -359.5t-332.5 -142.5q-102 0 -185 33t-134.5 84t-86.5 117.5t-48 129.5t-13 122zM547 37q319 0 319 422q0 186 -80.5 312t-248.5 126q-139 0 -221.5 -97.5t-82.5 -283.5q0 -219 83.5 -349 t230.5 -130zM401 1139l299 299q47 47 80 47t52.5 -20.5t19.5 -49.5q0 -39 -49 -69l-332 -207h-70z" />
<glyph unicode="&#xf4;" horiz-adv-x="1099" d="M80 461q0 219 135 358t346 139q205 0 332 -125.5t127 -355.5q0 -217 -140.5 -359.5t-332.5 -142.5q-102 0 -185 33t-134.5 84t-86.5 117.5t-48 129.5t-13 122zM547 37q319 0 319 422q0 186 -80.5 312t-248.5 126q-139 0 -221.5 -97.5t-82.5 -283.5q0 -219 83.5 -349 t230.5 -130zM244 1139l248 342h112l252 -342h-68l-239 215l-238 -215h-67z" />
<glyph unicode="&#xf5;" horiz-adv-x="1099" d="M80 461q0 219 135 358t346 139q205 0 332 -125.5t127 -355.5q0 -217 -140.5 -359.5t-332.5 -142.5q-102 0 -185 33t-134.5 84t-86.5 117.5t-48 129.5t-13 122zM547 37q319 0 319 422q0 186 -80.5 312t-248.5 126q-139 0 -221.5 -97.5t-82.5 -283.5q0 -219 83.5 -349 t230.5 -130zM825 1403h54q-39 -209 -193 -209q-47 0 -166 49q-104 43 -143 43q-74 0 -103 -98h-53q39 209 193 209q47 0 166 -49q104 -43 143 -43q73 0 102 98z" />
<glyph unicode="&#xf6;" horiz-adv-x="1099" d="M80 461q0 219 135 358t346 139q205 0 332 -125.5t127 -355.5q0 -217 -140.5 -359.5t-332.5 -142.5q-102 0 -185 33t-134.5 84t-86.5 117.5t-48 129.5t-13 122zM547 37q319 0 319 422q0 186 -80.5 312t-248.5 126q-139 0 -221.5 -97.5t-82.5 -283.5q0 -219 83.5 -349 t230.5 -130zM655 1272q0 37 28 65.5t67 28.5q37 0 65.5 -28.5t28.5 -65.5t-29 -65.5t-65 -28.5q-39 0 -67 28.5t-28 65.5zM256 1272q0 37 27.5 65.5t64.5 28.5t66.5 -28.5t29.5 -65.5t-29.5 -65.5t-66.5 -28.5t-64.5 28.5t-27.5 65.5z" />
<glyph unicode="&#xf7;" horiz-adv-x="1228" d="M96 469v98h1037v-98h-1037zM500 946q0 47 33.5 81t81 34t81 -34t33.5 -81t-33.5 -81t-81 -34t-81 34t-33.5 81zM500 90q0 47 33.5 81t81 34t81 -34t33.5 -81t-33.5 -81t-81 -34t-81 34t-33.5 81z" />
<glyph unicode="&#xf8;" horiz-adv-x="1099" d="M285 229l501 539q-84 129 -249 129q-139 0 -221.5 -97.5t-82.5 -283.5q1 -172 52 -287zM819 707l-502 -539q84 -131 230 -131q319 0 319 422q0 146 -47 248zM66 -6l127 137q-53 61 -83 155.5t-30 174.5q0 219 135 358t346 139q180 0 307 -102l117 125h6l43 -35v-6 l-121 -131q106 -123 107 -332q0 -217 -140.5 -359.5t-332.5 -142.5q-184 0 -309 109l-123 -131h-6l-43 35v6z" />
<glyph unicode="&#xf9;" horiz-adv-x="1138" d="M180 270v424q0 100 -12 115q-14 18 -51 20l-94 5l-7 6v34l7 7q115 10 278 77l18 -12q-6 -57 -6 -252v-266q0 -197 31 -258q16 -31 63.5 -60.5t110.5 -29.5q135 0 248 127q41 45 41 172v315q0 100 -12 115q-14 18 -52 20l-94 5l-6 6v34l6 7q115 10 279 77l18 -12 q-6 -57 -6 -252v-536q0 -68 18.5 -87.5t85.5 -25.5l46 -4l6 -6v-35l-6 -6q-129 6 -144 6q-51 0 -137 -6l-6 6q4 119 4 176l-131 -121q-31 -29 -51.5 -42t-64.5 -25.5t-105 -12.5q-80 0 -136.5 27t-85 73t-41 94t-12.5 101zM649 1139l-332 207q-49 31 -49 69q0 29 19.5 49.5 t52.5 20.5t80 -47l299 -299h-70z" />
<glyph unicode="&#xfa;" horiz-adv-x="1138" d="M180 270v424q0 100 -12 115q-14 18 -51 20l-94 5l-7 6v34l7 7q115 10 278 77l18 -12q-6 -57 -6 -252v-266q0 -197 31 -258q16 -31 63.5 -60.5t110.5 -29.5q135 0 248 127q41 45 41 172v315q0 100 -12 115q-14 18 -52 20l-94 5l-6 6v34l6 7q115 10 279 77l18 -12 q-6 -57 -6 -252v-536q0 -68 18.5 -87.5t85.5 -25.5l46 -4l6 -6v-35l-6 -6q-129 6 -144 6q-51 0 -137 -6l-6 6q4 119 4 176l-131 -121q-31 -29 -51.5 -42t-64.5 -25.5t-105 -12.5q-80 0 -136.5 27t-85 73t-41 94t-12.5 101zM422 1139l299 299q47 47 80 47t52 -20.5t19 -49.5 q0 -39 -49 -69l-331 -207h-70z" />
<glyph unicode="&#xfb;" horiz-adv-x="1138" d="M180 270v424q0 100 -12 115q-14 18 -51 20l-94 5l-7 6v34l7 7q115 10 278 77l18 -12q-6 -57 -6 -252v-266q0 -197 31 -258q16 -31 63.5 -60.5t110.5 -29.5q135 0 248 127q41 45 41 172v315q0 100 -12 115q-14 18 -52 20l-94 5l-6 6v34l6 7q115 10 279 77l18 -12 q-6 -57 -6 -252v-536q0 -68 18.5 -87.5t85.5 -25.5l46 -4l6 -6v-35l-6 -6q-129 6 -144 6q-51 0 -137 -6l-6 6q4 119 4 176l-131 -121q-31 -29 -51.5 -42t-64.5 -25.5t-105 -12.5q-80 0 -136.5 27t-85 73t-41 94t-12.5 101zM244 1139l248 342h112l252 -342h-68l-239 215 l-238 -215h-67z" />
<glyph unicode="&#xfc;" horiz-adv-x="1138" d="M180 270v424q0 100 -12 115q-14 18 -51 20l-94 5l-7 6v34l7 7q115 10 278 77l18 -12q-6 -57 -6 -252v-266q0 -197 31 -258q16 -31 63.5 -60.5t110.5 -29.5q135 0 248 127q41 45 41 172v315q0 100 -12 115q-14 18 -52 20l-94 5l-6 6v34l6 7q115 10 279 77l18 -12 q-6 -57 -6 -252v-536q0 -68 18.5 -87.5t85.5 -25.5l46 -4l6 -6v-35l-6 -6q-129 6 -144 6q-51 0 -137 -6l-6 6q4 119 4 176l-131 -121q-31 -29 -51.5 -42t-64.5 -25.5t-105 -12.5q-80 0 -136.5 27t-85 73t-41 94t-12.5 101zM655 1272q0 37 28 65.5t67 28.5q37 0 65.5 -28.5 t28.5 -65.5t-29 -65.5t-65 -28.5q-39 0 -67 28.5t-28 65.5zM256 1272q0 37 27.5 65.5t64.5 28.5t66.5 -28.5t29.5 -65.5t-29.5 -65.5t-66.5 -28.5t-64.5 28.5t-27.5 65.5z" />
<glyph unicode="&#xfd;" d="M14 -535l33 129l19 13q39 -43 100 -43q47 0 85 26.5t56.5 56t46.5 89.5q35 72 101 229q-33 117 -147 384l-169 388q-29 63 -53.5 94t-39.5 37t-44 11l-35 4l-6 6v35l6 6q178 -6 180 -6q39 0 81 1t94.5 3t80.5 2l7 -6v-35l-7 -6l-53 -4q-88 -8 -88 -45q0 -43 113 -302 l160 -370l57 131q207 463 207 530q0 27 -18.5 39t-67.5 17l-45 4l-6 6v35l6 6q18 0 51 -2t60.5 -3t51.5 -1q2 0 187 6l6 -6v-35l-6 -6l-31 -4q-37 -4 -64.5 -35t-72.5 -123t-141 -315l-279 -652q-70 -164 -144.5 -238.5t-191.5 -74.5q-49 0 -76 18zM377 1139l299 299 q47 47 79.5 47t52 -20.5t19.5 -49.5q0 -39 -49 -69l-332 -207h-69z" />
<glyph unicode="&#xfe;" horiz-adv-x="1138" d="M317 573v-415q86 -96 234 -97q170 0 260 119t90 297q0 199 -91 286t-208 87q-113 0 -221 -98q-43 -37 -53.5 -68t-10.5 -111zM317 18v-194q0 -246 15 -287q10 -31 94 -39l49 -4l6 -6v-35l-6 -6q-184 6 -215 6q-16 0 -225 -6l-6 6v35l6 6l47 4q70 6 88 27q14 16 14 129 v1571q0 100 -12 114q-14 18 -51 21l-86 4l-6 6v35l6 6q109 12 270 78l23 -14q-10 -123 -11 -463v-250q131 123 196 159.5t146 36.5q160 0 270.5 -112.5t110.5 -313.5q0 -150 -56 -250t-169 -182q-92 -66 -163.5 -95.5t-162.5 -29.5q-92 0 -172 43z" />
<glyph unicode="&#xff;" d="M14 -535l33 129l19 13q39 -43 100 -43q47 0 85 26.5t56.5 56t46.5 89.5q35 72 101 229q-33 117 -147 384l-169 388q-29 63 -53.5 94t-39.5 37t-44 11l-35 4l-6 6v35l6 6q178 -6 180 -6q39 0 81 1t94.5 3t80.5 2l7 -6v-35l-7 -6l-53 -4q-88 -8 -88 -45q0 -43 113 -302 l160 -370l57 131q207 463 207 530q0 27 -18.5 39t-67.5 17l-45 4l-6 6v35l6 6q18 0 51 -2t60.5 -3t51.5 -1q2 0 187 6l6 -6v-35l-6 -6l-31 -4q-37 -4 -64.5 -35t-72.5 -123t-141 -315l-279 -652q-70 -164 -144.5 -238.5t-191.5 -74.5q-49 0 -76 18zM614 1272q0 37 28 65.5 t67 28.5q37 0 65.5 -28.5t28.5 -65.5t-29 -65.5t-65 -28.5q-39 0 -67 28.5t-28 65.5zM215 1272q0 37 27.5 65.5t64.5 28.5t66.5 -28.5t29.5 -65.5t-29.5 -65.5t-66.5 -28.5t-64.5 28.5t-27.5 65.5z" />
<glyph unicode="&#x152;" horiz-adv-x="2009" d="M92 686q0 193 61.5 341.5t167 236.5t234.5 133t272 45q41 0 195 -15q131 -16 174 -16q100 0 218 1t263.5 3t227.5 2l6 -6q-29 -176 -29 -309l-6 -6h-49l-6 6q0 57 -15 198q-152 43 -336 43q-139 0 -235 -6q-6 -109 -6 -190v-381q70 -6 188 -6q227 0 254 16q16 10 21.5 35 t15.5 125l6 6h43l6 -6q-6 -166 -6 -221q0 -145 6 -219l-6 -7h-43l-6 7q-10 111 -17.5 136t-33.5 36q-49 18 -221 18q-109 0 -207 -6v-350q0 -82 4 -262h280q178 0 324 36q33 113 49 230l6 6h45l7 -6q-20 -195 -21 -334l-6 -6q-41 2 -130 3t-136 1q-104 2 -434 2 q-84 0 -232 -14q-127 -16 -184 -17q-158 0 -284 48.5t-203.5 122t-129 172t-72 190.5t-20.5 184zM260 784q0 -199 59.5 -363.5t193.5 -274t325 -109.5q129 0 221 43q16 80 16 432v805q-133 63 -262 63q-231 0 -392 -154.5t-161 -441.5z" />
<glyph unicode="&#x153;" horiz-adv-x="1669" d="M1571 145l-41 -75q-152 -94 -307 -95q-219 0 -346 205q-41 -53 -65 -78.5t-69 -60.5t-101 -50.5t-128 -15.5q-117 0 -207 48.5t-138 124t-71.5 154.5t-23.5 157q0 211 124 355t332 144q215 0 347 -186q133 186 372 186q57 0 110.5 -16t110 -53t91 -116t34.5 -189 q0 -25 -4 -66q-111 -20 -389 -20h-272q0 -190 90 -310t254 -120q133 0 280 94zM510 897q-147 0 -215 -104.5t-68 -280.5q0 -80 14.5 -156.5t47.5 -151.5t96.5 -121t149.5 -46q80 0 136 36t83.5 96t40 124.5t12.5 138.5q0 129 -29.5 225.5t-78 145.5t-95.5 71.5t-94 22.5z M1208 891q-248 0 -278 -334q213 -4 299 -4q76 0 209 10q4 49 4 74q0 129 -75 191.5t-159 62.5z" />
<glyph unicode="&#x178;" horiz-adv-x="1214" d="M559 227v365q-256 442 -330 545q-88 125 -135 161.5t-121 47.5l-6 6v34l6 7l193 49q23 -12 53 -33q115 -86 451 -733l180 293l260 448q8 0 21.5 -2t23.5 -3t20.5 -1t20.5 1t23.5 3t21.5 2l6 -6v-25l-6 -6q-100 -100 -328 -446q-133 -201 -180 -297q-20 -41 -20 -125v-285 q0 -119 14 -139q16 -27 109 -31l73 -4l6 -6v-47l-6 -6q-258 6 -272 6q-16 0 -275 -6l-6 6v47l6 6l74 4q92 4 109 31q14 20 14 139zM754 1632q0 37 27.5 65.5t66.5 28.5q37 0 65.5 -28.5t28.5 -65.5t-28.5 -65.5t-65.5 -28.5q-39 0 -66.5 28.5t-27.5 65.5zM354 1632 q0 37 28 65.5t64.5 28.5t66.5 -28.5t30 -65.5t-30 -65.5t-66.5 -28.5t-64.5 28.5t-28 65.5z" />
<glyph unicode="&#x2c6;" horiz-adv-x="530" d="M-41 1139l248 342h112l252 -342h-67l-240 215l-237 -215h-68z" />
<glyph unicode="&#x2dc;" horiz-adv-x="530" d="M541 1403h53q-39 -209 -193 -209q-47 0 -165 49q-104 43 -144 43q-74 0 -102 -98h-53q39 209 192 209q47 0 166 -49q104 -43 143 -43q74 0 103 98z" />
<glyph unicode="&#x2000;" horiz-adv-x="940" />
<glyph unicode="&#x2001;" horiz-adv-x="1880" />
<glyph unicode="&#x2002;" horiz-adv-x="940" />
<glyph unicode="&#x2003;" horiz-adv-x="1880" />
<glyph unicode="&#x2004;" horiz-adv-x="626" />
<glyph unicode="&#x2005;" horiz-adv-x="468" />
<glyph unicode="&#x2006;" horiz-adv-x="313" />
<glyph unicode="&#x2007;" horiz-adv-x="313" />
<glyph unicode="&#x2008;" horiz-adv-x="233" />
<glyph unicode="&#x2009;" horiz-adv-x="374" />
<glyph unicode="&#x200a;" horiz-adv-x="104" />
<glyph unicode="&#x2010;" horiz-adv-x="872" d="M723 555l10 -14q-31 -33 -43 -84q-264 6 -266 6q-39 0 -84 -1t-99.5 -3t-84.5 -2l-17 12l43 86q31 0 86.5 -2t100.5 -3t86 -1t85 1t98 3t85 2z" />
<glyph unicode="&#x2011;" horiz-adv-x="872" d="M723 555l10 -14q-31 -33 -43 -84q-264 6 -266 6q-39 0 -84 -1t-99.5 -3t-84.5 -2l-17 12l43 86q31 0 86.5 -2t100.5 -3t86 -1t85 1t98 3t85 2z" />
<glyph unicode="&#x2012;" horiz-adv-x="872" d="M723 555l10 -14q-31 -33 -43 -84q-264 6 -266 6q-39 0 -84 -1t-99.5 -3t-84.5 -2l-17 12l43 86q31 0 86.5 -2t100.5 -3t86 -1t85 1t98 3t85 2z" />
<glyph unicode="&#x2013;" horiz-adv-x="1024" d="M0 457v98h1024v-98h-1024z" />
<glyph unicode="&#x2014;" horiz-adv-x="2048" d="M0 457v98h2048v-98h-2048z" />
<glyph unicode="&#x2018;" horiz-adv-x="530" d="M422 1442l16 -17q-88 -137 -136 -274t-54 -217q-86 -12 -182 -45l-15 16q53 121 140.5 269.5t150.5 226.5z" />
<glyph unicode="&#x2019;" horiz-adv-x="530" d="M68 889l-17 16q88 137 136.5 274.5t54.5 217.5q86 12 182 45l14 -17q-53 -121 -140 -269t-151 -226z" />
<glyph unicode="&#x201a;" horiz-adv-x="530" d="M68 -305l-17 16q88 137 136.5 274.5t54.5 217.5q86 12 182 45l14 -17q-53 -121 -140 -269t-151 -226z" />
<glyph unicode="&#x201c;" d="M467 1442l16 -17q-88 -137 -136 -274t-54 -217q-86 -12 -182 -45l-15 16q53 121 140.5 269.5t150.5 226.5zM831 1442l17 -17q-88 -137 -136 -274t-55 -217q-86 -12 -182 -45l-14 16q53 121 140 269.5t151 226.5z" />
<glyph unicode="&#x201d;" d="M477 889l-16 16q88 137 136 274.5t54 217.5q86 12 183 45l14 -17q-53 -121 -140 -269t-151 -226zM113 889l-17 16q88 137 136.5 274.5t54.5 217.5q86 12 182 45l14 -17q-53 -121 -140 -269t-150 -226z" />
<glyph unicode="&#x201e;" d="M477 -305l-16 16q88 137 136 274.5t54 217.5q86 12 183 45l14 -17q-53 -121 -140 -269t-151 -226zM113 -305l-17 16q88 137 136.5 274.5t54.5 217.5q86 12 182 45l14 -17q-53 -121 -140 -269t-150 -226z" />
<glyph unicode="&#x2022;" horiz-adv-x="1024" d="M160 704.5q0 145.5 103.5 249t248.5 103.5t248.5 -103.5t103.5 -249t-103.5 -249t-248.5 -103.5t-248.5 103.5t-103.5 249z" />
<glyph unicode="&#x2026;" horiz-adv-x="2048" d="M236 90q0 43 31.5 76t74.5 33t75 -33t32 -76t-32 -73.5t-75 -30.5q-41 0 -73.5 30.5t-32.5 73.5zM918 90q0 43 31.5 76t74.5 33t74.5 -33t31.5 -76t-31.5 -73.5t-74.5 -30.5q-41 0 -73.5 30.5t-32.5 73.5zM1599 90q0 43 32 76t75 33t74.5 -33t31.5 -76t-31.5 -73.5 t-74.5 -30.5q-41 0 -74 30.5t-33 73.5z" />
<glyph unicode="&#x202f;" horiz-adv-x="374" />
<glyph unicode="&#x2039;" horiz-adv-x="606" d="M94 449v32q127 106 355 346h6l37 -22v-8q-82 -104 -238 -332q84 -137 238 -332v-6l-37 -25h-6q-232 247 -355 347z" />
<glyph unicode="&#x203a;" horiz-adv-x="606" d="M512 481v-32q-127 -106 -354 -347h-6l-37 23v8q82 104 237 332q-84 137 -237 332v6l37 24h6q231 -246 354 -346z" />
<glyph unicode="&#x205f;" horiz-adv-x="468" />
<glyph unicode="&#x20ac;" horiz-adv-x="1024" d="M926 168l22 -18l-22 -97q-119 -84 -271 -84q-236 0 -362.5 161t-153.5 409q-43 0 -133 -4l-6 6l16 55l7 6q74 -4 112 -4q-2 25 -2 72q0 76 4 112q-45 0 -131 -4l-6 6l16 56l7 6q82 -4 120 -4q14 113 49 209t93.5 179t150.5 130t209 47q59 0 169 -28.5t128 -32.5l6 -7 q-29 -121 -35 -268l-6 -6h-41l-8 4q0 55 -4 162q-76 104 -207 104q-96 0 -165.5 -45t-108.5 -121.5t-58.5 -155.5t-25.5 -171h246q86 0 249 4l7 -6l-17 -56l-6 -6q-84 4 -254 4h-227q0 -12 -1 -34.5t-1 -32.5q0 -39 4 -117h188q78 0 238 4l6 -6l-16 -55l-7 -6q-160 4 -237 4 h-166q10 -92 32.5 -171t64.5 -154t115 -118t169 -43q146 0 250 115z" />
<glyph unicode="&#x2122;" horiz-adv-x="2027" d="M332 705v675h-109q-109 0 -135 -143h-43v180h684v-180h-43q-27 143 -135 143h-109v-675q0 -43 18.5 -56.5t86.5 -21.5v-37h-320v37q68 8 86.5 21.5t18.5 56.5zM1333 590l-319 639h-4v-492q0 -51 22.5 -77.5t85.5 -32.5v-37h-264v37q63 6 85 32.5t22 77.5v543 q0 10 -13.5 31.5t-47.5 45t-77 23.5v37h224l329 -659l340 659h193v-37q-119 -6 -119 -116v-566q0 -41 15.5 -51t86.5 -20v-37h-317v37q72 10 88 20t16 51v537h-4l-323 -645h-19z" />
<glyph unicode="&#xe000;" horiz-adv-x="940" d="M0 940h940v-940h-940v940z" />
<glyph unicode="&#xfb01;" horiz-adv-x="1138" d="M807 201v493q0 100 -12 115q-14 18 -52 20l-94 5l-6 6v34l6 7q115 10 279 77l18 -12q-6 -57 -6 -252v-493q0 -113 14 -129q18 -20 88 -27l56 -4l6 -6v-35l-6 -6q-12 0 -97.5 3t-126.5 3q-31 0 -67.5 -1t-83.5 -3t-74 -2l-6 6v35l6 6l56 4q70 6 88 27q14 16 14 129z M772 1288q0 41 29.5 71t70.5 30t71 -30t30 -71t-30 -70.5t-71 -29.5t-70.5 29.5t-29.5 70.5zM193 201v604h-39q-33 0 -99 -8l-6 6v26l6 7l138 55q0 84 4 178q2 72 20.5 118t41 71.5t83.5 84.5q94 88 139 117t94 29q31 0 87 -10q-6 -37 -7 -68q0 -6 7 -92h-21q-63 43 -131 43 q-184 0 -184 -229v-242h65q96 0 199 10l10 -8q-10 -66 -12 -82l-6 -6h-256v-604q0 -109 14 -127q12 -16 149 -29l48 -4l6 -6v-35l-6 -6q-147 6 -269 6q-16 0 -225 -6l-6 6v35l6 6l47 4q70 6 88 27q15 16 15 129z" />
<glyph unicode="&#xfb02;" horiz-adv-x="1138" d="M940 1012v-811q0 -113 14 -129q18 -20 88 -27l56 -4l6 -6v-35l-6 -6q-27 0 -74 2t-84 3t-70 1q-29 0 -65.5 -1t-81.5 -3t-74 -2l-6 6v35l6 6l56 4q70 6 88 27q14 16 14 129v1024q0 100 -12 114q-14 18 -52 21l-88 4q4 -37 4 -45h-20q-66 43 -129 43q-184 0 -184 -229 v-242h65q96 0 199 10l10 -8q-10 -66 -12 -82l-6 -6h-256v-604q0 -109 14 -127q12 -16 149 -29l48 -4l6 -6v-35l-6 -6q-147 6 -269 6q-16 0 -225 -6l-6 6v35l6 6l47 4q70 6 88 27q14 16 15 129v604h-39q-33 0 -99 -8l-6 6v26l6 7l138 55q0 84 4 178q2 72 20.5 118t41 71.5 t83.5 84.5q94 88 139 117t94 29q27 0 84 -10q-6 -37 -6 -68q127 16 275 78l22 -14q-10 -123 -10 -463z" />
<glyph unicode="&#xfb03;" horiz-adv-x="1742" d="M1411 201v493q0 100 -13 115q-14 18 -51 20l-94 5l-6 6v34l6 7q115 10 278 77l19 -12q-6 -57 -6 -252v-493q0 -113 14 -129q18 -20 88 -27l55 -4l7 -6v-35l-7 -6q-12 0 -97 3t-126 3q-31 0 -67.5 -1t-83.5 -3t-74 -2l-6 6v35l6 6l55 4q70 6 88 27q15 16 15 129z M1376 1288q0 41 29.5 71t70.5 30t71 -30t30 -71t-30 -70.5t-71 -29.5t-70.5 29.5t-29.5 70.5zM799 201v604h-39q-33 0 -99 -8l-6 6v26l6 7l138 55q0 84 4 178q2 72 20.5 118t41 71.5t83.5 84.5q94 88 139 117t94 29q31 0 87 -10q-6 -37 -7 -68q0 -6 7 -92h-21 q-63 43 -131 43q-184 0 -184 -229v-242h65q96 0 199 10l10 -8q-10 -66 -12 -82l-6 -6h-256v-604q0 -109 14 -127q12 -16 149 -29l48 -4l6 -6v-35l-6 -6q-147 6 -269 6q-16 0 -225 -6l-6 6v35l6 6l47 4q70 6 88 27q15 16 15 129zM193 201v604h-39q-33 0 -99 -8l-6 6v26l6 7 l138 55q0 84 4 178q2 72 20.5 118t41 71.5t83.5 84.5q94 88 139 117t94 29q31 0 87 -10q-6 -37 -7 -68q0 -6 7 -92h-21q-63 43 -131 43q-184 0 -184 -229v-242h65q96 0 199 10l10 -8q-10 -66 -12 -82l-6 -6h-256v-604q0 -109 14 -127q12 -16 149 -29l48 -4l6 -6v-35l-6 -6 q-147 6 -269 6q-16 0 -225 -6l-6 6v35l6 6l47 4q70 6 88 27q15 16 15 129z" />
<glyph unicode="&#xfb04;" horiz-adv-x="1742" d="M1411 201v1024q0 100 -13 114q-14 18 -51 21l-94 4l-6 6v35l6 6q115 10 278 78l23 -14q-10 -123 -10 -463v-811q0 -113 14 -129q18 -20 88 -27l55 -4l7 -6v-35l-7 -6q-27 0 -73.5 2t-83.5 3t-70 1q-29 0 -65.5 -1t-81.5 -3t-74 -2l-6 6v35l6 6l55 4q70 6 88 27 q15 16 15 129zM799 201v604h-39q-33 0 -99 -8l-6 6v26l6 7l138 55q0 84 4 178q2 72 20.5 118t41 71.5t83.5 84.5q94 88 139 117t94 29q31 0 87 -10q-6 -37 -7 -68q0 -6 7 -92h-21q-63 43 -131 43q-184 0 -184 -229v-242h65q96 0 199 10l10 -8q-10 -66 -12 -82l-6 -6h-256 v-604q0 -109 14 -127q12 -16 149 -29l48 -4l6 -6v-35l-6 -6q-147 6 -269 6q-16 0 -225 -6l-6 6v35l6 6l47 4q70 6 88 27q15 16 15 129zM193 201v604h-39q-33 0 -99 -8l-6 6v26l6 7l138 55q0 84 4 178q2 72 20.5 118t41 71.5t83.5 84.5q94 88 139 117t94 29q31 0 87 -10 q-6 -37 -7 -68q0 -6 7 -92h-21q-63 43 -131 43q-184 0 -184 -229v-242h65q96 0 199 10l10 -8q-10 -66 -12 -82l-6 -6h-256v-604q0 -109 14 -127q12 -16 149 -29l48 -4l6 -6v-35l-6 -6q-147 6 -269 6q-16 0 -225 -6l-6 6v35l6 6l47 4q70 6 88 27q15 16 15 129z" />
</font>
</defs>
</svg>
